<?xml version="1.0" standalone="no"?>
<!DOCTYPE svg PUBLIC "-//W3C//DTD SVG 20010904//EN"
 "http://www.w3.org/TR/2001/REC-SVG-20010904/DTD/svg10.dtd">
<svg version="1.0" xmlns="http://www.w3.org/2000/svg"
 width="988.000000pt" height="666.000000pt" viewBox="0 0 988.000000 666.000000"
 preserveAspectRatio="xMidYMid meet">
<metadata>
Created by potrace 1.16, written by Peter Selinger 2001-2019
</metadata>
<g transform="translate(0.000000,666.000000) scale(0.100000,-0.100000)"
fill="#000000" stroke="none">
<path d="M0 3330 l0 -3330 4940 0 4940 0 0 3330 0 3330 -4940 0 -4940 0 0
-3330z m4469 3165 c33 -45 36 -57 40 -127 4 -90 -3 -128 -24 -128 -8 0 -15 4
-15 9 0 5 -9 11 -19 14 -15 3 -26 -5 -44 -32 -66 -100 -68 -109 -24 -92 21 8
25 7 21 -4 -3 -8 -37 -26 -74 -40 -38 -15 -80 -35 -94 -46 -31 -24 -39 -24
-26 1 6 10 32 34 58 52 82 56 117 99 151 186 14 36 16 49 7 49 -7 0 -13 -5
-12 -11 1 -6 -2 -11 -5 -11 -3 0 -14 -7 -25 -15 -18 -14 -18 -14 -4 4 8 10 15
35 16 55 1 20 4 54 8 76 l6 40 -18 -38 c-31 -63 -42 -63 -22 -1 11 33 22 72
25 87 8 40 32 32 74 -28z m-195 24 c-10 -12 -39 -33 -64 -47 -47 -26 -140
-110 -140 -125 0 -5 11 -2 25 7 22 15 24 15 18 0 -3 -9 0 -20 8 -24 11 -7 10
-12 -5 -29 -17 -19 -17 -20 6 -23 20 -4 19 -7 -17 -23 -22 -10 -62 -23 -90
-30 -27 -7 -57 -14 -65 -16 -9 -3 -16 5 -18 19 -3 18 -6 21 -17 12 -11 -9 -15
-5 -20 22 -8 44 6 79 56 133 43 47 63 57 52 28 -8 -20 -14 -23 70 32 16 10 39
20 50 21 12 1 54 16 92 33 84 36 83 36 59 10z m26 -257 c-12 -22 -60 -78 -108
-124 -48 -46 -86 -87 -84 -92 5 -16 -19 -74 -38 -91 -11 -10 -20 -27 -20 -38
0 -18 -5 -19 -122 -13 -68 3 -139 8 -158 12 -37 6 -172 -36 -137 -44 28 -6 20
-19 -17 -26 -34 -7 -64 -31 -52 -43 11 -11 51 -10 58 1 5 7 16 5 37 -7 35 -21
67 -21 101 -2 32 18 40 18 40 0 0 -19 -37 -28 -104 -23 l-55 3 22 -23 c15 -17
30 -22 49 -20 16 3 28 2 28 -2 0 -8 92 5 140 19 19 6 50 11 68 11 30 0 34 -5
58 -57 18 -38 28 -80 30 -123 3 -56 2 -60 -6 -32 -10 31 -12 32 -28 16 -9 -10
-17 -21 -17 -26 0 -4 -3 -7 -7 -5 -4 1 -14 -7 -22 -18 -15 -20 -15 -20 -16 3
0 24 -35 32 -43 10 -3 -10 -7 -10 -20 1 -15 11 -18 10 -27 -13 -10 -27 -12
-28 -70 -31 -27 -1 -34 -5 -32 -18 2 -10 -4 -18 -15 -19 -56 -5 -89 -2 -100 8
-7 7 -16 14 -20 16 -5 1 -15 17 -23 33 -9 17 -25 31 -38 33 -12 2 -29 14 -38
27 -22 34 -61 41 -95 16 -28 -21 -124 -61 -146 -61 -28 0 -10 17 45 43 31 15
62 27 68 27 7 0 19 11 27 24 15 23 15 24 -8 30 -13 3 -29 4 -37 2 -50 -16 -70
-17 -65 -2 14 35 -94 35 -159 0 -73 -40 -164 -74 -195 -74 -20 0 -34 9 -50 33
-30 42 -39 48 -61 36 -10 -5 -18 -7 -18 -3 0 19 51 91 72 102 24 12 166 54
228 67 46 10 215 77 265 106 22 13 54 35 72 50 37 31 157 80 283 114 113 30
116 32 93 58 -15 18 -15 19 -1 9 11 -9 26 -11 40 -6 13 4 59 8 103 9 53 1 94
8 120 19 22 10 54 18 71 17 25 -1 40 9 90 62 32 34 60 62 62 61 2 -1 -7 -20
-18 -42z m303 -198 c32 -37 33 -44 8 -44 -12 0 -23 11 -30 31 -13 37 -29 34
-111 -19 -39 -25 -69 -37 -105 -40 -55 -5 -127 -34 -162 -65 -42 -37 -25 4 20
48 36 36 53 44 122 60 81 18 195 75 196 98 0 7 8 1 17 -13 9 -13 29 -39 45
-56z m-87 -113 c-9 -14 33 -21 61 -10 37 14 45 12 34 -9 -5 -10 -26 -27 -45
-37 -32 -18 -49 -45 -27 -45 4 0 8 -12 9 -27 0 -16 3 -39 7 -53 6 -24 3 -26
-85 -54 -76 -24 -104 -28 -162 -24 -71 6 -96 17 -83 38 6 9 29 11 85 6 71 -6
130 3 153 24 26 23 -70 90 -130 90 -43 0 -132 -30 -162 -56 -41 -34 -60 -30
-26 6 39 40 131 84 248 116 53 15 97 31 97 36 0 4 7 8 16 8 8 0 13 -4 10 -9z
m-227 -346 c98 -64 137 -74 198 -52 l43 16 11 -42 c6 -23 18 -58 26 -79 8 -20
13 -40 10 -45 -3 -5 -41 -6 -88 -1 -65 6 -89 13 -115 33 -19 14 -34 30 -34 35
0 9 43 -5 65 -21 6 -4 27 -10 48 -14 32 -6 37 -5 37 11 0 14 -27 32 -101 67
-56 27 -111 57 -122 68 -21 20 -116 59 -143 59 -8 0 -12 5 -9 10 3 6 25 10 48
10 34 0 58 -10 126 -55z m-1215 -117 c26 -6 41 -6 45 1 8 12 81 -7 81 -21 0
-5 4 -6 10 -3 17 10 41 -62 30 -91 -11 -28 -14 -27 -71 18 -20 15 -40 28 -43
28 -4 0 -19 9 -35 21 -15 11 -52 26 -81 32 -67 15 -82 40 -18 31 23 -3 61 -10
82 -16z m1762 -77 c15 -11 37 -21 50 -21 13 0 53 -16 90 -35 38 -20 81 -35
102 -36 l37 -1 -49 -17 c-38 -13 -46 -19 -32 -24 14 -6 16 -10 7 -21 -9 -10
-5 -20 18 -45 16 -17 28 -31 26 -31 -2 0 -15 4 -30 10 -17 7 -24 7 -20 0 3 -6
1 -10 -6 -10 -6 0 11 -23 39 -52 28 -29 49 -54 47 -57 -7 -6 -110 76 -152 122
-21 23 -57 67 -80 98 -22 30 -64 76 -92 101 -28 25 -51 48 -51 51 0 11 71 -12
96 -32z m-621 -70 c3 -10 5 -23 3 -27 -4 -15 13 -54 23 -54 5 0 9 9 9 20 0 11
6 20 14 20 7 0 26 7 42 15 25 13 31 13 54 -2 14 -9 29 -23 35 -32 15 -25 6
-142 -14 -191 -11 -25 -29 -73 -41 -107 -12 -33 -30 -70 -39 -80 -10 -10 -20
-36 -24 -56 -3 -21 -19 -53 -35 -71 -16 -19 -32 -50 -36 -70 -4 -21 -13 -36
-21 -36 -9 0 -12 -6 -9 -15 4 -10 -3 -18 -20 -25 -17 -6 -24 -14 -20 -25 3 -8
1 -15 -5 -15 -6 0 -11 -7 -11 -16 0 -23 -37 -68 -43 -52 -3 7 -8 -1 -12 -19
-7 -30 -10 -32 -39 -26 -17 3 -28 2 -24 -2 4 -4 -2 -21 -13 -37 -12 -16 -18
-32 -14 -36 4 -4 12 1 19 11 13 17 46 24 46 10 0 -9 -39 -75 -49 -83 -3 -3
-13 -18 -21 -34 -8 -16 -28 -41 -44 -55 -16 -14 -37 -34 -47 -43 -9 -9 -26
-15 -36 -14 -10 2 -23 -4 -30 -13 -11 -14 -12 -14 -13 2 0 9 -4 17 -9 17 -17
0 -23 -20 -12 -34 9 -11 4 -13 -26 -11 -21 1 -50 6 -65 10 -25 6 -28 5 -28
-18 0 -21 11 -32 58 -58 73 -42 192 -129 192 -140 0 -5 6 -9 14 -9 21 0 66
-58 66 -84 0 -26 -19 -86 -27 -86 -3 0 -12 8 -19 18 -11 14 -16 15 -33 5 -11
-7 -27 -10 -34 -7 -9 3 -17 -4 -21 -18 -6 -17 -9 -19 -13 -8 -8 21 -25 30 -45
24 -11 -3 -22 3 -30 15 -7 12 -19 21 -26 21 -9 0 -12 10 -11 28 4 33 -6 50
-34 63 -12 5 -38 19 -57 31 -19 11 -51 22 -70 24 -63 5 -119 15 -158 28 -13 4
-28 3 -35 -2 -13 -11 -101 -9 -154 2 -20 5 -33 4 -33 -2 0 -5 -20 -15 -44 -21
-64 -16 -66 -32 -6 -46 3 -1 16 -6 30 -12 46 -20 138 -36 178 -31 34 5 43 2
61 -20 26 -32 26 -33 1 -65 -17 -21 -27 -25 -50 -20 -17 3 -30 2 -30 -3 0 -5
-43 -10 -96 -12 -59 -1 -93 1 -90 7 4 6 -7 8 -29 4 -21 -3 -41 -1 -50 7 -18
15 -92 23 -100 10 -4 -6 -11 -8 -16 -5 -5 4 -9 2 -9 -3 0 -6 -9 -8 -21 -5 -18
5 -19 2 -13 -22 5 -21 4 -26 -7 -23 -8 3 -13 13 -12 24 3 38 -43 49 -76 17
-10 -11 -16 -11 -27 -2 -10 8 -14 8 -14 0 0 -22 -18 -11 -24 15 -6 24 -10 26
-44 20 -20 -3 -45 -6 -54 -6 -11 0 -15 -5 -12 -15 4 -8 12 -15 20 -15 20 0 44
-41 44 -77 0 -40 -4 -41 -34 -7 -18 21 -33 28 -72 30 -27 1 -69 7 -94 13 -24
5 -46 9 -47 7 -2 -2 13 -24 32 -49 19 -25 35 -51 35 -56 0 -6 5 -10 11 -9 6 2
14 -3 17 -11 2 -8 0 -11 -6 -7 -37 23 -7 -132 31 -159 26 -18 52 1 30 23 -18
19 -17 20 22 20 19 0 48 10 65 22 45 32 103 21 169 -31 77 -62 131 -198 85
-216 -9 -3 -19 -2 -23 3 -5 8 -25 11 -33 5 -2 -2 -16 -4 -33 -6 -23 -3 -35 3
-60 31 -29 32 -33 34 -70 26 -23 -5 -39 -14 -37 -21 1 -7 -2 -10 -7 -6 -6 3
-35 -6 -66 -20 -31 -14 -60 -25 -65 -25 -6 0 -10 -4 -10 -10 0 -5 4 -10 9 -10
5 0 26 -18 47 -40 21 -22 43 -40 49 -40 6 0 21 -13 33 -29 21 -29 21 -30 2
-36 -23 -7 -101 35 -129 71 -10 13 -22 24 -27 24 -4 0 -19 13 -34 30 -19 22
-32 28 -49 23 -18 -4 -21 -11 -17 -29 5 -18 3 -22 -9 -18 -8 4 -15 10 -15 15
0 5 -6 9 -14 9 -7 0 -19 7 -26 15 -7 8 -34 21 -60 29 -26 8 -65 23 -88 35 -49
25 -67 46 -25 30 15 -6 56 -15 91 -20 35 -5 78 -17 95 -26 43 -22 114 -21 156
3 36 21 56 49 26 38 -15 -6 -75 39 -75 57 0 9 -94 99 -115 112 -8 4 -51 14
-96 22 -45 7 -86 18 -91 23 -16 16 19 33 74 37 29 2 56 4 61 4 26 3 -16 54
-54 66 -11 4 -19 11 -19 17 0 6 -10 8 -24 4 -20 -5 -23 -3 -19 14 4 16 2 19
-11 14 -12 -5 -15 -2 -10 10 4 11 1 16 -10 16 -9 0 -16 5 -16 10 0 6 -7 10
-15 10 -8 0 -29 21 -47 46 -18 25 -51 64 -73 87 -56 59 -93 110 -100 139 -8
32 -81 107 -112 114 -13 4 -47 3 -76 0 -69 -9 -51 12 25 29 76 17 72 40 -7 40
-41 0 -59 4 -58 12 4 20 -34 25 -66 9 -35 -18 -50 -38 -33 -44 7 -2 12 -10 12
-17 0 -7 14 -18 30 -24 17 -5 30 -12 30 -15 0 -15 -62 -4 -80 14 -11 11 -23
20 -27 20 -5 0 -28 -23 -53 -50 -25 -28 -68 -75 -97 -104 -29 -30 -49 -56 -46
-60 4 -3 2 -6 -4 -6 -6 0 -14 -7 -17 -16 -4 -9 -2 -13 5 -8 8 4 7 0 0 -15 -7
-11 -16 -21 -22 -21 -6 0 -8 -11 -4 -28 4 -21 0 -36 -17 -58 -22 -29 -46 -48
-60 -49 -8 0 -9 -12 -1 -32 3 -7 -9 -24 -26 -39 -17 -14 -59 -60 -93 -102 -84
-102 -104 -123 -134 -138 -34 -18 -34 -19 -24 16 11 37 35 71 126 180 83 99
143 183 209 295 27 44 67 105 90 136 24 31 46 66 50 78 3 11 27 38 53 58 26
21 64 52 85 70 35 31 42 33 111 33 51 0 77 4 85 14 19 23 59 28 91 11 41 -21
53 -20 40 6 -6 11 -11 35 -10 52 1 18 1 34 0 37 -1 3 -3 14 -5 25 -9 49 -195
157 -215 125 -4 -7 -12 -10 -16 -7 -5 3 -40 -2 -79 -9 -38 -8 -90 -17 -115
-19 -25 -3 -56 -8 -70 -12 -14 -3 -32 -5 -40 -4 -9 1 -69 -7 -135 -18 -81 -13
-123 -24 -131 -35 -16 -23 -67 -36 -137 -36 -51 0 -62 -3 -79 -25 -18 -23 -25
-25 -67 -19 -64 8 -75 -6 -69 -91 3 -54 1 -66 -13 -70 -9 -3 -20 -20 -25 -38
-13 -45 -58 -48 -133 -10 -107 55 -202 178 -152 199 9 3 80 11 158 18 l142 12
45 40 c107 94 137 108 210 99 61 -8 259 16 371 45 100 25 227 71 326 116 118
54 135 54 212 5 83 -54 157 -149 197 -251 31 -81 115 -199 204 -285 65 -64
106 -110 106 -123 0 -4 14 -25 30 -46 16 -21 27 -43 24 -47 -3 -5 2 -9 10 -9
10 0 16 -9 16 -22 0 -30 57 -78 93 -78 15 0 36 -5 47 -12 10 -7 20 -10 22 -8
27 42 56 109 48 112 -5 1 2 18 16 35 26 34 123 94 204 128 25 10 65 35 90 55
25 20 68 50 95 65 60 35 58 33 212 255 67 96 145 209 175 250 61 86 294 325
329 338 24 9 105 24 146 26 24 2 63 33 63 50 0 6 25 38 55 71 30 32 55 62 55
67 0 4 6 8 14 8 8 0 17 14 21 30 12 53 57 80 70 41z m539 -82 c14 -17 29 -42
32 -56 5 -17 9 -21 14 -12 5 7 4 23 -1 36 -28 75 14 38 63 -54 20 -38 39 -82
42 -99 4 -17 26 -49 49 -72 43 -42 257 -162 288 -162 10 0 19 -6 22 -12 2 -9
26 -13 69 -13 51 0 62 -2 49 -11 -9 -6 -36 -12 -61 -13 -25 -1 -60 -3 -79 -6
-19 -2 -39 -1 -45 4 -6 4 -24 11 -41 15 -53 13 -125 48 -119 58 3 5 -1 17 -10
26 -36 37 -76 86 -76 94 0 4 -9 8 -20 8 -19 0 -19 -1 2 -35 11 -20 18 -38 15
-41 -5 -6 -77 108 -77 122 0 5 -15 34 -34 66 -19 31 -31 60 -28 64 4 4 2 4 -4
1 -11 -6 -98 97 -111 130 -9 24 29 0 61 -38z m1310 -201 c-14 -17 -14 -19 -2
-10 12 10 26 11 52 3 20 -5 36 -6 36 -1 0 4 -12 11 -26 14 -15 4 -24 9 -21 12
6 7 87 -15 87 -23 0 -18 -36 -30 -62 -21 -45 16 -56 2 -13 -16 30 -13 44 -15
55 -7 49 35 56 35 100 -5 93 -85 93 -84 80 -99 -18 -22 -30 -19 -66 16 -50 49
-48 18 3 -34 25 -26 49 -47 53 -47 5 0 14 16 20 36 11 33 13 34 33 21 12 -8
25 -28 28 -46 6 -27 4 -30 -8 -19 -11 9 -21 8 -46 -7 l-31 -18 -61 67 c-73 80
-95 78 -26 -3 81 -93 102 -130 89 -151 -7 -10 -16 -16 -22 -13 -6 4 -7 -1 -2
-12 6 -17 5 -18 -11 -3 -10 8 -24 13 -30 11 -7 -3 -13 0 -13 5 0 6 -14 9 -31
8 -30 -2 -31 -1 -26 30 3 17 1 36 -5 42 -8 8 -5 9 11 5 11 -3 21 -1 21 5 0 5
-12 13 -27 17 -16 4 -22 10 -16 12 7 3 26 -2 43 -10 16 -9 30 -12 30 -7 0 11
-47 40 -66 40 -13 0 -14 3 -4 15 9 11 9 15 1 15 -7 0 -9 5 -6 11 19 30 -100
92 -175 91 -39 0 -42 1 -20 9 34 14 85 3 147 -31 45 -24 54 -26 64 -13 29 35
49 36 81 4 18 -17 35 -31 40 -31 18 0 5 20 -35 53 l-43 35 -24 -20 c-26 -21
-27 -21 -118 17 -53 22 -68 24 -100 16 l-37 -10 34 29 c19 16 43 31 55 33 12
2 23 5 25 6 2 0 -4 -9 -15 -21z m48 -118 l26 -12 -19 -35 c-11 -19 -15 -32
-10 -29 5 4 12 2 15 -3 4 -5 2 -12 -4 -16 -14 -9 -1 -27 13 -19 7 4 9 4 5 0
-3 -4 5 -24 18 -43 29 -44 31 -79 4 -93 -17 -9 -18 -14 -7 -31 10 -16 9 -21
-3 -29 -8 -5 -19 -8 -25 -5 -5 2 -34 11 -62 20 -34 11 -53 22 -53 32 0 10 -6
13 -16 9 -9 -3 -19 -6 -24 -6 -5 0 -12 -9 -15 -21 -4 -11 -17 -25 -30 -31 -13
-6 -26 -19 -29 -30 -4 -16 -10 -19 -30 -14 -15 4 -26 2 -26 -4 0 -5 -7 -10
-15 -10 -8 0 -15 5 -15 10 0 6 7 10 15 10 8 0 15 9 15 20 0 22 -20 26 -49 11
-16 -9 -17 -6 -12 24 3 19 17 47 30 62 23 26 28 28 57 19 18 -6 35 -19 37 -28
6 -21 25 -24 33 -4 6 15 -40 96 -54 96 -4 0 -12 -4 -18 -10 -5 -5 -19 -7 -32
-3 -17 4 -20 9 -11 19 6 7 18 10 27 7 13 -4 14 -3 3 5 -11 8 -11 13 0 33 7 13
12 28 11 32 -1 4 13 14 32 22 19 8 36 20 38 26 4 13 44 15 73 5 20 -7 20 -7 1
8 -19 15 -18 16 5 24 24 9 53 4 101 -18z m1390 -26 c3 -3 -3 -42 -13 -87 -11
-45 -28 -120 -39 -167 -10 -47 -26 -116 -35 -155 -9 -38 -21 -97 -26 -130 -6
-33 -17 -82 -26 -110 -23 -80 -29 -156 -11 -169 22 -17 29 -44 16 -71 -11 -24
-15 -25 -95 -24 -46 1 -86 6 -90 12 -11 19 27 35 77 32 27 -2 47 1 44 6 -3 5
-20 9 -37 9 -69 0 -102 23 -52 36 19 5 23 9 15 19 -12 14 12 40 38 40 8 0 18
7 22 15 10 18 40 151 40 174 0 9 4 24 10 34 9 17 29 101 55 232 24 116 67 285
77 298 11 13 21 15 30 6z m-2977 -123 c39 -10 72 -17 74 -15 2 2 -2 11 -10 20
-13 16 -12 16 7 6 11 -6 27 -18 34 -27 7 -8 32 -20 57 -26 56 -15 65 -29 17
-29 l-37 0 55 -52 c60 -58 92 -101 82 -111 -4 -4 -12 0 -18 8 -22 28 -179 87
-261 98 -44 6 -86 16 -93 24 -8 7 -17 11 -22 8 -4 -3 -6 4 -3 15 6 24 16 25
46 5 28 -18 143 -33 134 -17 -4 5 -25 13 -47 17 -24 4 -44 14 -50 25 -15 28
-12 32 13 25 17 -5 19 -4 7 4 -8 6 -25 11 -37 11 -23 0 -37 13 -26 24 3 3 7 6
7 6 1 0 33 -9 71 -19z m620 -191 c6 -4 32 -15 59 -23 70 -24 138 -71 183 -125
54 -67 80 -85 122 -85 20 0 39 -4 42 -10 4 -5 12 0 18 12 9 17 9 21 -3 21 -22
0 -9 33 30 77 19 21 34 43 34 50 0 7 25 27 55 45 30 18 55 37 56 43 0 5 6 -3
13 -19 13 -29 12 -30 -45 -78 -33 -27 -59 -54 -59 -60 0 -9 3 -9 12 0 19 19
30 14 18 -9 -7 -11 -9 -23 -6 -26 3 -3 8 2 12 11 9 25 19 19 33 -19 7 -19 21
-40 32 -45 10 -6 19 -15 19 -20 0 -16 -70 -23 -98 -11 -23 11 -28 9 -54 -18
-35 -37 -46 -40 -24 -6 20 31 22 52 3 36 -8 -6 -17 -8 -20 -4 -4 3 -16 -5 -27
-18 l-20 -24 3 24 c1 14 -4 26 -13 28 -13 4 -13 3 0 -6 12 -8 12 -13 2 -23 -9
-9 -12 -9 -12 0 0 23 -31 12 -41 -15 -14 -35 -12 -106 2 -98 3 3 12 -2 19 -10
7 -8 9 -15 4 -15 -5 0 -3 -4 5 -9 11 -7 10 -13 -8 -32 -20 -21 -30 -69 -14
-69 4 0 16 9 27 19 21 20 21 20 24 -7 1 -15 4 -58 5 -97 3 -71 11 -100 27 -90
5 3 14 -3 19 -13 12 -23 -4 -49 -34 -54 -11 -2 -20 -10 -20 -17 0 -8 -6 -16
-14 -19 -9 -3 -12 0 -9 10 3 7 -1 23 -9 33 -14 18 -14 16 -9 -25 3 -25 9 -72
12 -104 l7 -59 -29 7 c-54 12 -99 12 -97 -1 2 -7 1 -13 -2 -13 -14 0 -72 35
-87 53 -18 20 -18 19 -18 -20 0 -35 7 -48 58 -101 61 -66 57 -78 -16 -46 -81
34 -87 39 -93 74 -4 19 -7 32 -8 29 0 -4 -18 -1 -38 6 -25 8 -39 20 -41 33 -2
12 -21 30 -48 43 -57 31 -60 59 -6 59 20 0 48 -6 62 -13 33 -17 101 -20 120
-4 8 7 26 28 39 48 16 23 30 35 39 31 11 -4 13 0 8 16 -5 15 1 29 23 51 17 17
36 31 43 31 7 0 24 -16 38 -35 28 -38 45 -46 35 -15 -4 11 -2 20 4 20 12 0 14
36 5 93 -8 47 -21 49 -16 2 3 -26 0 -35 -11 -35 -15 0 -27 40 -27 93 0 39 -11
29 -12 -12 -1 -31 -11 -36 -66 -34 -9 1 -11 -5 -7 -15 4 -10 9 -22 12 -28 6
-16 -46 -27 -62 -14 -8 6 -24 10 -37 8 -23 -4 -23 -4 4 -18 15 -7 25 -17 22
-21 -8 -14 -112 -10 -149 5 -35 15 -45 10 -23 -12 24 -24 -6 -11 -48 21 -24
17 -49 45 -55 61 -7 16 -24 32 -41 38 -30 11 -36 26 -16 46 9 9 7 16 -7 32
-14 15 -15 20 -4 20 11 1 11 3 -2 13 -30 23 -26 41 20 90 25 27 52 59 59 73
15 28 47 31 167 13 84 -13 119 -4 128 32 5 20 -7 26 -18 10 -3 -6 -22 -4 -48
4 -23 8 -58 17 -77 20 -43 6 -83 57 -73 93 4 19 11 22 29 18 31 -8 30 4 -6 61
-16 26 -30 50 -30 55 0 8 27 0 45 -12z m613 -639 c13 -13 14 -11 8 15 -3 16
-2 35 3 43 7 11 12 3 20 -30 6 -24 20 -63 31 -86 16 -36 23 -42 47 -40 24 2
28 7 25 29 -2 22 3 27 36 35 36 9 111 -2 162 -24 8 -3 18 -6 22 -5 4 1 27 -17
50 -39 24 -22 58 -47 75 -54 44 -19 125 -96 168 -161 27 -40 47 -58 88 -77 28
-13 79 -46 112 -74 81 -67 103 -80 152 -87 40 -6 45 -4 97 43 66 59 81 68 153
87 60 15 78 13 43 -6 -22 -12 -27 -16 -93 -74 -21 -19 -53 -41 -72 -51 -55
-26 -42 -30 20 -7 17 7 38 17 48 22 25 15 21 4 -10 -24 l-26 -25 24 -5 c113
-26 123 -27 134 -13 6 8 17 50 24 94 8 48 20 86 32 98 10 11 26 54 35 95 8 41
22 104 30 140 13 61 44 107 63 95 9 -5 -13 -153 -35 -240 -9 -33 -17 -71 -19
-85 -1 -14 -7 -50 -13 -80 -6 -30 -14 -76 -17 -103 -6 -47 -6 -48 27 -61 18
-8 78 -26 133 -41 55 -16 111 -38 124 -49 54 -48 66 -120 43 -266 -4 -30 -5
-71 -1 -90 4 -19 5 -47 2 -62 -3 -17 -1 -28 6 -28 12 0 16 -40 4 -40 -5 0 -18
-3 -30 -6 -16 -4 -23 -2 -23 8 0 8 -20 47 -45 87 -25 40 -45 77 -45 81 0 9 11
13 63 24 21 5 27 12 27 34 0 40 -27 189 -39 210 -6 11 -35 26 -73 36 -35 10
-72 22 -83 27 -25 10 -96 29 -112 29 -13 0 -23 -44 -53 -230 -12 -74 -25 -145
-30 -156 -9 -24 4 -44 30 -44 9 0 24 -6 34 -13 16 -12 13 -17 -38 -55 -31 -23
-71 -49 -88 -58 l-31 -16 -47 51 c-26 28 -54 51 -63 51 -21 0 -22 1 7 -51 42
-78 50 -116 31 -146 -16 -24 -16 -27 -2 -38 9 -6 19 -23 22 -37 5 -20 1 -29
-15 -41 -30 -21 -62 -8 -75 30 -5 16 -18 37 -28 47 -9 10 -15 22 -11 27 3 5
-5 18 -18 29 -17 14 -36 19 -75 17 -49 -2 -54 0 -94 40 -35 36 -40 45 -29 58
17 20 39 19 105 -6 31 -12 58 -19 61 -16 7 7 -7 37 -17 37 -5 0 -9 5 -9 11 0
6 -9 22 -20 37 -15 18 -17 28 -9 33 8 5 3 14 -15 30 -14 12 -26 29 -26 36 0 8
-4 11 -10 8 -5 -3 -7 0 -4 8 5 15 -40 37 -75 37 -29 0 -40 19 -29 50 5 16 16
31 24 34 8 3 14 19 14 36 0 33 6 32 -139 34 -54 1 -80 19 -44 30 10 3 5 4 -12
2 -16 -2 -38 -7 -48 -11 -10 -4 -17 -4 -16 1 4 16 -35 73 -54 78 -14 3 -17 1
-12 -12 4 -9 13 -38 21 -64 8 -26 24 -54 37 -63 28 -20 77 -19 106 1 22 16 23
16 12 -5 -15 -28 -54 -36 -101 -22 -33 10 -40 18 -61 69 -12 31 -28 65 -35 75
-12 18 -13 18 -23 0 -5 -11 -7 -30 -4 -43 6 -22 6 -22 -16 -4 -13 11 -21 30
-21 49 0 21 3 26 9 16 14 -21 23 5 15 42 -3 17 -12 35 -18 39 -18 12 13 9 51
-4 18 -7 32 -17 29 -23 -5 -15 118 -58 168 -58 22 0 50 -6 61 -13 11 -8 30
-14 42 -14 18 0 22 -5 20 -22 -1 -18 4 -24 24 -26 27 -3 37 9 45 53 2 11 10
45 19 75 25 87 25 92 7 106 -25 19 -34 17 -21 -4 9 -14 9 -23 0 -38 -8 -13
-11 -14 -10 -4 3 34 -1 44 -12 33 -9 -9 -28 2 -77 44 -92 77 -126 97 -217 129
-44 15 -84 31 -89 35 -4 4 12 16 37 27 24 11 47 25 51 31 9 15 -28 49 -61 56
-39 8 -129 42 -187 71 -27 13 -51 22 -54 20 -8 -9 22 -53 64 -93 48 -46 52
-53 29 -53 -8 0 -15 4 -15 8 0 12 -73 58 -114 73 -28 10 -36 19 -41 47 -4 23
-2 38 5 42 8 5 9 10 2 14 -6 3 -13 2 -17 -4 -8 -13 -85 26 -85 44 0 8 -21 44
-46 81 -46 66 -74 123 -74 147 0 7 10 -7 22 -32 12 -25 29 -51 36 -59z m-8
-110 c22 -23 41 -45 41 -49 1 -4 3 -16 4 -27 1 -11 9 -44 18 -72 9 -29 14 -53
11 -53 -2 0 -7 0 -11 1 -3 0 -10 -6 -15 -15 -7 -13 -27 -16 -98 -16 -49 0
-111 5 -138 11 l-49 10 14 42 c8 22 23 47 34 55 10 7 19 24 19 37 0 13 5 27
10 30 6 3 10 16 10 28 0 43 26 66 70 63 33 -3 48 -11 80 -45z m-843 -208 c3
-10 21 -35 40 -56 18 -20 33 -44 33 -51 0 -22 -77 -29 -125 -12 -24 9 -44 11
-49 5 -13 -12 61 -76 99 -85 18 -4 57 -34 97 -75 62 -63 121 -108 104 -80 -10
15 6 14 42 -5 35 -17 42 -34 15 -34 -15 0 -14 -3 5 -22 19 -19 24 -21 32 -9 7
12 13 13 34 3 41 -19 33 -38 -16 -37 -33 0 -49 6 -70 27 -20 21 -34 27 -58 24
-17 -2 -33 0 -36 5 -3 5 4 9 15 9 12 0 21 5 21 10 0 6 -13 10 -29 10 -16 0
-36 3 -45 6 -9 3 -16 1 -16 -5 0 -6 7 -11 15 -11 8 0 15 -4 15 -9 0 -16 -21
-24 -33 -12 -16 16 -31 13 -18 -3 12 -14 49 -26 99 -32 57 -6 149 -65 211
-134 34 -39 69 -70 77 -70 21 0 17 -17 -6 -23 -11 -3 -20 -2 -20 2 0 4 -12 14
-27 23 -16 9 -39 26 -52 37 -28 25 -41 27 -41 7 0 -21 -52 -29 -123 -20 -34 5
-71 9 -82 9 -50 3 -53 5 -48 24 4 16 -2 21 -31 26 -61 12 -48 23 58 50 32 8
59 10 80 4 41 -12 43 -11 20 5 -15 12 -45 14 -149 9 -107 -5 -133 -3 -145 9
-8 8 -30 21 -47 29 -18 7 -33 17 -33 21 0 8 95 38 121 38 10 0 21 5 24 10 10
16 -77 12 -125 -5 -23 -8 -49 -15 -57 -15 -13 0 -13 3 -3 15 10 12 10 15 -2
15 -8 0 -19 -5 -26 -12 -6 -6 -14 -9 -17 -6 -3 3 1 13 10 22 15 15 15 16 -2
16 -15 0 -14 4 7 20 l25 20 -27 -10 c-16 -5 -39 -17 -53 -26 -24 -16 -170 -40
-305 -51 -59 -4 -63 -3 -45 10 34 25 135 49 219 52 101 4 93 2 99 20 5 11 1
12 -19 5 -33 -13 -34 -13 -34 5 0 26 36 53 81 60 34 6 52 17 77 46 18 21 41
41 52 44 10 3 31 31 45 61 14 30 30 52 34 49 5 -3 25 11 44 30 39 39 55 43 64
18z m229 -39 c-3 -8 1 -17 8 -21 17 -11 66 -85 66 -100 0 -34 -112 0 -154 46
-16 17 -17 25 -8 46 6 13 23 27 37 31 14 3 25 13 25 21 0 13 3 13 15 3 9 -7
14 -19 11 -26z m-3531 -36 c15 -22 14 -23 -17 -34 -18 -7 -59 -26 -92 -43 -37
-19 -86 -34 -138 -42 -44 -6 -100 -22 -124 -34 -24 -12 -44 -19 -44 -14 0 20
78 68 162 99 51 18 97 37 102 42 21 17 -6 19 -64 5 -58 -15 -90 -14 -90 3 0
20 37 34 93 36 34 2 85 7 112 12 55 9 76 3 100 -30z m1542 -18 c-3 -11 -1 -20
3 -20 4 0 3 -11 -3 -25 -7 -14 -20 -25 -29 -25 -9 0 -20 -5 -23 -11 -4 -6 -14
-8 -22 -5 -11 5 -13 1 -7 -17 4 -12 10 -37 14 -54 7 -29 5 -33 -12 -33 -11 0
-22 8 -25 20 -3 11 -10 20 -17 20 -18 0 -115 64 -116 76 0 26 59 48 157 58 12
1 32 10 45 19 31 22 41 21 35 -3z m1887 -38 c9 -28 99 -110 129 -117 29 -8 36
-29 13 -38 -8 -3 -24 -3 -35 0 -30 8 -26 -12 5 -26 44 -20 21 -22 -31 -4 -26
10 -65 36 -86 58 -92 95 -91 93 -80 112 6 10 11 14 11 10 0 -5 10 -1 22 7 29
21 45 20 52 -2z m-3481 -97 c8 -8 25 -14 38 -13 58 2 64 -14 24 -59 -23 -25
-26 -26 -35 -11 -8 13 -24 17 -68 17 -56 0 -170 16 -179 25 -10 10 9 26 32 26
13 0 26 4 29 9 3 5 15 7 25 4 10 -3 21 -1 24 4 9 15 95 14 110 -2z m3137 -213
c88 -46 194 -115 205 -132 3 -5 29 -25 58 -43 52 -34 53 -34 156 -31 56 1 105
5 108 8 7 7 63 -54 104 -111 16 -24 36 -43 43 -43 17 0 29 -27 16 -35 -5 -3
-11 -1 -14 4 -4 5 -18 8 -34 6 -18 -2 -36 5 -54 23 -16 14 -28 21 -28 15 0 -6
7 -14 16 -17 8 -3 13 -10 10 -15 -3 -5 5 -19 18 -32 13 -13 22 -29 19 -35 -3
-7 2 -37 11 -68 17 -56 21 -116 9 -116 -4 0 -17 9 -29 20 -12 12 -34 23 -50
24 -16 2 -32 4 -35 5 -4 0 -10 13 -14 28 -8 35 -65 113 -65 91 0 -9 4 -19 9
-22 14 -9 35 -96 25 -106 -6 -6 -24 4 -47 25 -21 19 -43 35 -49 35 -6 0 -19 7
-29 16 -16 14 -19 13 -40 -15 -13 -17 -28 -31 -35 -31 -7 0 -16 -9 -19 -20 -7
-23 -167 -106 -184 -96 -6 4 -24 0 -40 -9 -27 -14 -29 -17 -20 -47 8 -29 6
-36 -19 -58 -16 -14 -31 -33 -35 -42 -3 -10 -13 -18 -20 -18 -20 0 -77 -30
-77 -40 0 -5 -9 -11 -19 -15 -11 -3 -23 -14 -26 -25 -5 -17 -39 -30 -87 -35
-9 -1 -24 -7 -32 -15 -26 -21 -30 -4 -7 29 35 48 6 45 -41 -5 -24 -25 -47 -53
-52 -62 -5 -10 -17 -22 -25 -29 -11 -8 -16 -26 -15 -57 1 -48 -10 -61 -21 -26
-7 21 -25 28 -25 9 0 -6 -7 -8 -15 -5 -11 4 -15 0 -13 -12 2 -9 -3 -16 -9 -15
-7 2 -13 -2 -13 -8 0 -6 -13 -28 -30 -49 -30 -38 -44 -78 -18 -52 7 7 16 12
20 12 16 0 7 -22 -20 -50 -16 -16 -28 -38 -28 -52 1 -18 -4 -23 -21 -22 -16 0
-24 -7 -28 -28 -4 -15 -10 -28 -15 -28 -17 0 -56 -45 -94 -106 -42 -70 -94
-126 -107 -118 -5 3 -9 1 -9 -5 0 -5 -15 -9 -34 -8 -29 2 -34 5 -32 26 1 20
-6 27 -33 35 -32 9 -35 8 -87 -46 -42 -44 -54 -52 -54 -36 0 11 12 29 26 41
14 12 43 37 64 55 34 29 41 31 63 21 23 -10 32 -8 74 19 61 40 133 114 165
172 19 35 30 44 46 42 16 -2 25 4 32 23 6 15 7 31 4 36 -9 15 17 41 34 34 11
-4 13 0 9 15 -4 15 -1 20 11 18 12 -2 17 5 17 24 1 15 9 35 18 46 9 10 17 24
17 30 0 7 5 12 10 12 7 0 7 7 -1 21 -7 15 -8 24 0 32 5 5 7 17 2 26 -4 9 -7
32 -7 51 1 30 5 35 28 38 38 5 187 146 171 162 -14 15 6 40 31 40 13 0 36 28
36 43 0 5 -31 1 -37 -3 -2 -2 -6 -3 -10 -4 -5 -1 -14 -5 -20 -9 -9 -5 -17 1
-25 17 -11 25 -38 36 -38 16 0 -5 -6 -10 -14 -10 -8 0 -17 -8 -19 -17 -3 -13
-5 -12 -6 5 0 13 -5 20 -11 17 -5 -3 -10 -2 -10 4 0 5 5 13 10 16 6 3 10 15
10 26 0 10 6 19 14 19 16 0 39 90 30 115 -4 10 0 15 14 15 20 0 46 -23 37 -32
-3 -3 1 -11 9 -17 12 -10 12 -16 1 -38 -19 -36 -9 -47 20 -26 27 20 30 29 15
38 -5 3 -10 16 -10 27 0 12 -8 31 -17 42 -18 21 -18 21 5 2 12 -11 22 -24 22
-30 0 -6 9 -22 20 -36 24 -31 25 -41 3 -33 -13 5 -15 2 -10 -11 4 -10 1 -19
-8 -22 -22 -9 -8 -24 23 -24 15 0 38 -6 52 -13 23 -12 28 -10 68 29 33 34 42
50 42 77 0 69 112 232 200 290 l25 16 -22 7 c-13 3 -23 11 -23 16 0 5 -15 9
-32 8 -52 -3 -58 -1 -58 19 0 29 -90 103 -116 96 -13 -3 -24 1 -27 9 -8 20
-43 25 -73 10 -42 -22 -70 -17 -103 19 -17 17 -31 35 -31 39 0 4 19 12 43 18
23 6 57 16 74 21 18 6 36 8 41 5 5 -3 22 -1 38 3 54 16 89 8 174 -37z m-3220
-28 c55 -19 80 -40 80 -69 0 -22 -1 -22 -57 -8 -32 7 -73 18 -91 24 -30 10
-39 7 -101 -30 -37 -23 -71 -41 -76 -41 -28 0 122 122 157 127 12 2 24 6 27 8
7 7 11 6 61 -11z m1790 -99 c0 -9 -7 -32 -15 -52 -8 -19 -15 -46 -15 -58 0
-12 7 -28 15 -35 12 -10 15 -10 15 1 0 8 6 5 14 -6 13 -18 18 -19 61 -7 25 7
51 9 57 6 7 -4 8 -2 4 4 -4 6 12 19 40 31 60 27 84 27 84 1 0 -14 -7 -20 -21
-20 -11 0 -45 -11 -76 -25 -122 -56 -187 -61 -252 -18 -51 34 -231 23 -231
-14 0 -11 6 -14 23 -9 60 18 95 18 141 -2 34 -16 46 -26 46 -43 0 -16 -4 -19
-17 -14 -30 13 -123 18 -123 7 0 -5 16 -22 35 -36 27 -21 35 -34 35 -58 0 -58
-73 -124 -96 -87 -4 7 -21 9 -48 4 -80 -13 -85 -13 -101 11 -8 12 -23 25 -34
29 -23 7 -71 -20 -71 -40 0 -14 56 -39 81 -36 20 2 34 -76 17 -96 -6 -7 -8
-13 -5 -13 3 0 -1 -19 -8 -42 -13 -47 -49 -75 -72 -56 -7 6 -13 16 -13 23 0 7
-12 24 -27 37 -39 33 -61 70 -65 109 -2 26 -8 35 -24 37 -11 2 -27 -4 -34 -13
-24 -28 -37 -18 -34 28 l4 42 -22 -43 c-13 -25 -27 -41 -35 -38 -7 3 -18 -4
-24 -16 -9 -16 -13 -18 -19 -7 -5 7 -6 17 -3 22 4 6 -5 7 -21 3 -16 -4 -25 -3
-22 2 3 5 1 24 -4 42 -8 27 -6 33 9 37 15 4 18 15 17 78 -1 44 -6 79 -14 87
-17 17 -15 33 3 18 8 -7 15 -19 15 -26 0 -8 4 -14 10 -14 5 0 13 -12 16 -27 6
-24 8 -25 20 -9 10 14 8 24 -10 56 -25 44 -132 123 -121 90 4 -11 2 -20 -4
-20 -6 0 -11 5 -11 10 0 6 -4 10 -9 10 -6 0 -8 -9 -6 -19 4 -21 -18 -46 -33
-37 -5 3 -38 -25 -73 -62 -50 -53 -65 -64 -67 -49 -1 25 17 61 57 111 28 35
31 46 31 107 0 72 6 83 28 49 7 -11 18 -20 26 -20 7 0 20 -8 27 -17 8 -9 44
-36 82 -60 37 -24 67 -47 67 -51 0 -4 21 -29 46 -57 29 -32 44 -42 40 -29 -6
19 -3 21 21 17 123 -20 148 -20 195 2 34 17 49 20 58 11 16 -15 43 22 37 51
-7 35 44 87 110 113 32 12 98 42 146 66 91 46 147 56 147 29z m6235 -205 c-3
-5 -12 -10 -20 -10 -7 0 -15 -6 -18 -14 -4 -9 -36 -15 -109 -21 -57 -3 -142
-15 -189 -24 -47 -10 -94 -15 -105 -11 -17 6 -15 10 16 29 19 11 37 21 40 21
32 0 284 31 288 35 10 10 103 5 97 -5z m-7136 -209 c19 -14 23 -27 23 -77 1
-32 6 -62 12 -67 7 -5 5 -12 -6 -21 -21 -16 -25 -61 -4 -53 7 3 20 -3 29 -13
14 -17 14 -20 -3 -35 -17 -15 -20 -15 -45 1 -15 10 -31 28 -36 41 -12 33 -11
97 2 127 10 21 8 30 -12 58 -13 18 -27 35 -31 36 -5 2 -6 7 -3 12 8 13 51 8
74 -9z m5078 -103 c18 -15 17 -19 -17 -57 -30 -32 -32 -51 -4 -51 14 0 19 -26
8 -54 -3 -9 -16 -16 -28 -16 -12 0 -31 -7 -42 -15 -12 -8 -24 -12 -27 -8 -7 7
-37 -22 -37 -35 0 -5 11 -13 25 -16 30 -8 33 -26 5 -26 -12 0 -25 10 -32 24
-13 31 -31 38 -63 26 -31 -12 -32 -23 -1 -40 67 -35 23 -64 -69 -46 -53 11
-60 15 -63 38 -3 27 36 68 64 68 7 0 21 11 30 24 18 28 39 36 71 25 14 -5 25
-3 33 7 10 11 9 14 -9 14 -25 0 -29 31 -7 50 8 6 16 24 18 38 2 19 10 28 25
30 12 2 25 12 28 22 5 15 13 17 42 14 20 -3 43 -10 50 -16z m-684 -10 c48 -33
73 -60 79 -86 5 -18 1 -23 -20 -28 -15 -3 -35 -8 -44 -11 -10 -2 -18 0 -18 6
0 6 -7 11 -15 11 -8 0 -15 4 -15 9 0 5 -13 22 -30 38 -33 31 -40 69 -12 76 33
9 44 7 75 -15z m-1251 -74 c24 -3 55 -14 68 -24 l23 -17 -42 0 c-27 0 -52 -8
-69 -20 -27 -20 -41 -21 -129 -7 -37 6 -43 27 -15 55 18 19 82 24 164 13z
m-305 -299 c22 -19 43 -32 46 -29 9 9 67 -29 73 -48 3 -10 15 -18 26 -18 26 0
124 -56 132 -75 3 -8 11 -15 18 -15 7 0 31 -17 53 -38 22 -20 52 -42 65 -48
14 -6 50 -32 80 -57 52 -42 59 -45 127 -49 64 -3 76 -7 103 -33 l30 -29 36 37
c40 41 71 53 112 43 15 -4 39 -10 54 -13 15 -3 32 -11 38 -18 7 -9 23 -12 45
-8 30 5 36 2 46 -21 8 -17 25 -29 49 -36 26 -7 50 -25 75 -55 50 -62 67 -70
106 -49 26 13 33 14 40 2 7 -11 9 -10 9 1 0 8 3 12 6 8 12 -11 -37 -77 -62
-83 -13 -3 -24 -11 -24 -17 0 -6 -10 -1 -23 11 -31 30 -76 37 -118 19 -19 -8
-49 -12 -67 -9 -17 2 -43 1 -58 -2 -22 -6 -24 -9 -13 -22 9 -12 24 -15 51 -11
33 4 42 1 66 -24 28 -31 94 -55 115 -43 6 4 0 -4 -15 -19 -39 -37 -64 -42 -78
-17 -9 16 -21 20 -60 20 -54 0 -65 -9 -56 -46 7 -27 36 -31 94 -15 31 9 32 9
32 -19 0 -34 -11 -42 -65 -50 -34 -4 -40 -8 -37 -28 2 -15 -2 -22 -12 -22 -9
0 -16 8 -17 18 0 14 -1 14 -8 -3 -11 -27 -95 -52 -116 -35 -28 23 -18 47 23
56 20 4 46 7 57 7 24 -1 35 13 35 48 0 22 -4 26 -23 22 -13 -3 -48 0 -78 5
-30 6 -55 9 -56 8 -1 -1 2 -18 6 -39 8 -34 7 -37 -14 -37 -55 0 -88 15 -134
61 -27 27 -56 49 -64 49 -8 0 -21 12 -28 28 -8 15 -18 27 -24 28 -24 3 -55 17
-55 26 0 20 -61 35 -107 26 -42 -9 -46 -8 -78 24 -19 18 -35 37 -35 41 0 5
-14 22 -31 38 -17 16 -28 32 -25 37 3 5 -7 15 -22 23 -15 7 -31 15 -36 18 -6
2 0 -11 12 -31 14 -22 22 -52 22 -78 l0 -43 -37 6 c-21 4 -39 11 -41 17 -2 5
-8 10 -14 10 -6 0 -7 -7 -4 -16 4 -9 4 -26 0 -36 -5 -16 -12 -19 -35 -14 -22
4 -31 1 -36 -10 -3 -9 -1 -19 5 -23 7 -4 15 -28 18 -53 5 -36 3 -46 -10 -51
-9 -4 -16 -18 -16 -33 l0 -27 20 23 c11 12 22 31 25 41 12 38 50 16 64 -38 6
-22 3 -31 -15 -45 -12 -10 -27 -18 -33 -18 -7 0 -15 -9 -19 -21 -7 -19 -16
-13 -98 62 -105 97 -127 129 -149 219 -14 56 -25 75 -71 124 -30 32 -54 64
-54 71 0 7 -17 25 -37 41 -21 16 -43 33 -49 39 -7 5 -22 18 -34 29 -21 17 -21
19 -7 28 10 5 17 16 17 23 0 8 7 15 16 15 10 0 14 -6 11 -14 -3 -8 1 -17 9
-20 8 -3 14 -1 14 5 0 6 9 8 20 4 11 -4 63 -8 115 -9 89 -3 94 -2 84 16 -6 11
-15 16 -22 11 -7 -4 -7 0 2 10 7 9 20 17 28 17 12 0 13 -3 4 -14 -10 -11 -8
-16 5 -24 10 -6 15 -16 11 -26 -5 -12 0 -16 18 -16 20 0 25 5 25 24 0 13 -7
29 -15 36 -11 9 -13 16 -5 24 12 12 13 27 2 24 -10 -4 -82 68 -82 82 0 5 12
10 26 10 14 0 23 4 20 9 -3 5 1 12 10 15 12 5 14 14 8 38 -3 18 -12 37 -19 43
-7 5 -15 18 -19 29 -5 15 -2 17 19 12 14 -4 25 -2 25 4 0 18 15 11 57 -25z
m-2963 -113 c3 -5 20 -7 38 -4 l33 5 -19 -22 c-15 -17 -26 -20 -53 -15 -23 4
-39 2 -51 -9 -9 -8 -42 -25 -72 -37 -30 -12 -62 -26 -70 -31 -92 -55 -113 -62
-185 -55 -201 19 -210 21 -185 51 10 12 23 15 44 11 17 -3 47 -1 66 4 19 6 72
15 118 20 88 9 118 17 227 61 74 29 101 34 109 21z"/>
<path d="M4080 4848 c-14 -28 -33 -60 -43 -71 -10 -12 -15 -27 -13 -34 3 -8
-2 -13 -14 -13 -14 0 -18 5 -14 18 3 9 -2 4 -11 -11 -13 -23 -19 -26 -31 -17
-11 10 -16 7 -24 -15 -5 -14 -10 -29 -10 -32 0 -2 -9 -16 -20 -30 -11 -14 -20
-34 -20 -44 0 -13 -7 -19 -22 -20 -13 0 -17 -3 -9 -6 10 -4 7 -11 -11 -27 -13
-11 -27 -28 -30 -37 -4 -9 -27 -26 -52 -39 -47 -22 -53 -40 -14 -40 22 0 20
-10 -4 -14 -23 -3 -39 -17 -48 -42 -6 -14 -18 -24 -30 -24 -11 0 -20 -5 -20
-11 0 -5 -4 -7 -10 -4 -5 3 -10 -2 -10 -12 0 -15 -2 -15 -9 -3 -6 8 -7 18 -5
22 14 22 -28 3 -81 -37 -33 -25 -64 -45 -70 -45 -12 -1 -55 -36 -55 -45 0 -3
9 -3 20 0 14 5 20 2 20 -10 0 -8 8 -18 18 -22 9 -3 29 -15 44 -25 33 -23 44
-23 93 3 67 35 240 210 332 334 63 86 130 199 150 254 7 19 17 39 23 45 13 17
24 92 14 99 -5 3 -20 -18 -34 -45z"/>
<path d="M1947 4009 c42 -49 99 -108 127 -130 27 -22 98 -92 157 -157 59 -64
121 -127 138 -140 28 -21 89 -105 104 -144 3 -9 20 -24 37 -33 26 -13 31 -14
36 -2 5 15 -37 126 -62 162 -8 11 -14 26 -14 33 0 16 -24 38 -102 93 -32 22
-68 53 -80 69 -12 16 -62 62 -112 102 -50 40 -92 76 -94 81 -2 4 -10 7 -19 7
-8 0 -27 13 -41 28 -44 47 -132 122 -143 122 -5 0 25 -41 68 -91z"/>
<path d="M6808 3313 c-10 -2 -18 -9 -18 -14 0 -6 -4 -7 -10 -4 -5 3 -10 -3
-10 -15 0 -11 -12 -32 -26 -45 -22 -20 -24 -27 -15 -39 7 -9 10 -24 6 -36 -5
-15 -3 -20 7 -18 14 3 45 -25 65 -59 10 -17 9 -24 0 -32 -13 -10 -39 8 -79 58
-18 22 -52 28 -63 11 -3 -5 12 -21 35 -35 27 -17 40 -32 40 -48 -1 -20 -1 -21
-11 -3 -11 17 -13 17 -38 -9 -14 -15 -44 -39 -66 -52 -26 -16 -32 -23 -17 -20
12 3 22 2 22 -2 0 -4 13 -7 30 -6 16 1 27 -2 24 -7 -3 -4 1 -8 9 -8 8 0 35
-11 61 -25 l47 -25 19 43 c11 23 20 48 20 55 0 8 15 12 48 11 83 -3 99 18 138
176 9 39 23 80 31 92 14 21 13 22 -24 31 -21 6 -71 13 -112 17 -40 3 -78 8
-85 10 -6 1 -19 1 -28 -2z"/>
</g>
</svg>
