<?xml version="1.0" encoding="iso-8859-1"?>
<!-- Uploaded to: SVG Repo, www.svgrepo.com, Generator: SVG Repo Mixer Tools -->
<svg fill="#000000" height="800px" width="800px" version="1.1" id="Layer_1" xmlns="http://www.w3.org/2000/svg" xmlns:xlink="http://www.w3.org/1999/xlink" 
	 viewBox="0 0 512 512" xml:space="preserve">
<g>
	<g>
		<g>
			<path d="M17.86,178.601c9.864,0,17.86-7.997,17.86-17.86V35.721h125.018c9.864,0,17.86-7.997,17.86-17.86
				c0-9.864-7.997-17.86-17.86-17.86H17.86C7.997,0,0,7.997,0,17.86v142.88C0,170.604,7.997,178.601,17.86,178.601z"/>
			<path d="M494.14,0H351.261c-9.864,0-17.86,7.997-17.86,17.86c0,9.864,7.997,17.86,17.86,17.86h125.018v125.02
				c0,9.864,7.997,17.86,17.86,17.86c9.864,0,17.86-7.997,17.86-17.86V17.86C512,7.997,504.003,0,494.14,0z"/>
			<path d="M494.14,333.399c-9.864,0-17.86,7.997-17.86,17.86v125.02H351.261c-9.864,0-17.86,7.997-17.86,17.86
				c0,9.864,7.997,17.86,17.86,17.86H494.14c9.864,0,17.86-7.997,17.86-17.86v-142.88C512,341.396,504.003,333.399,494.14,333.399z"
				/>
			<path d="M160.739,476.279H35.721v-125.02c0-9.864-7.997-17.86-17.86-17.86c-9.864,0-17.86,7.997-17.86,17.86v142.88
				C0,504.003,7.997,512,17.86,512h142.879c9.864,0,17.86-7.997,17.86-17.86C178.6,484.276,170.603,476.279,160.739,476.279z"/>
			<path d="M256,314.222c-38.385,0-73.123-15.883-98.01-41.412c-46.587,31.538-77.268,84.876-77.268,145.248
				c0,9.864,7.997,17.86,17.86,17.86h314.835c9.864,0,17.86-7.997,17.86-17.86c0-60.371-30.681-113.71-77.268-145.247
				C329.123,298.34,294.385,314.222,256,314.222z"/>
			<path d="M256,278.501c55.807,0,101.209-45.402,101.209-101.209S311.807,76.082,256,76.082s-101.209,45.402-101.209,101.209
				S200.193,278.501,256,278.501z"/>
		</g>
	</g>
</g>
</svg>