<svg viewBox="0 0 640 400" data-background-color="#ffffff" preserveAspectRatio="xMidYMid meet" height="400" width="640" xmlns="http://www.w3.org/2000/svg" xmlns:xlink="http://www.w3.org/1999/xlink"><rect width="640" height="400" x="0" y="0" opacity="1" fill="#ffffff" data-fill-palette-color="background" id="background"></rect><g id="tight-bounds" transform="matrix(1,0,0,1,191.98177836547953,60)"><svg viewBox="0 0 256.03644326904094 280" height="280" width="256.03644326904094"><g><svg viewBox="0 0 278.2696 304.31405391039226" height="280" width="256.03644326904094"><g><svg viewBox="0 0 278.2696 304.31405391039226" height="304.31405391039226" width="278.2696"><g><svg viewBox="0 0 278.2696 304.31405391039226" height="304.31405391039226" width="278.2696"><g><svg viewBox="0 0 278.2696 278.2696" height="278.2696" width="278.2696"><g transform="matrix(1,0,0,1,107.89296734892041,89.94321971048298)"><svg viewBox="0 0 62.48366530215922 98.38316057903407" height="98.38316057903407" width="62.48366530215922"><g><svg xmlns="http://www.w3.org/2000/svg" xmlns:xlink="http://www.w3.org/1999/xlink" version="1.1" x="0" y="0" viewBox="18.24474334716797 0 63.510528564453125 100" style="enable-background:new 0 0 100 100;" xml:space="preserve" height="98.38316057903407" width="62.48366530215922" class="icon-o-0" data-fill-palette-color="accent" id="o-0"><g fill="#ff4136" data-fill-palette-color="accent"><path d="M39.136 26.325c-1.612 0-2.955-0.757-3.879-2.211-2.394-0.362-3.926-1.817-4.317-4.117-1.38-1.653-2.715-4.674 0.52-8.694 0.581-0.727 1.642-0.843 2.367-0.257 0.725 0.583 0.84 1.643 0.256 2.367-1.941 2.414-1.307 3.674-0.332 4.678 0.273 0.28 0.439 0.647 0.471 1.037 0.088 1.075 0.452 1.665 2.13 1.706 0.652 0.016 1.236 0.407 1.499 1.004 0.455 1.032 0.897 1.409 2.296 0.917 0.882-0.307 1.84 0.154 2.147 1.031 0.308 0.877-0.153 1.839-1.03 2.147C40.515 26.196 39.803 26.325 39.136 26.325z" fill="#ff4136" data-fill-palette-color="accent"></path><path d="M41.533 93.173c-2.651 0-5.852-0.651-8.038-2.144-2.441 1.721-6.091 2.663-10.969-0.356-0.571-0.352-0.878-1.011-0.782-1.673 1.945-13.346 2.396-15.741 2.588-16.762 0.112-0.592 0.109-0.592 0.312-2.466l0.518-4.69c0.103-0.924 0.917-1.61 1.86-1.486 0.924 0.102 1.59 0.936 1.486 1.86l-0.515 4.682c-0.226 2.071-0.228 2.071-0.352 2.724-0.167 0.889-0.604 3.203-2.398 15.483 3.664 1.864 5.801 0.509 7.118-0.729 0.328-0.309 0.766-0.444 1.218-0.457 0.451 0.018 0.876 0.216 1.18 0.549 1.217 1.337 4.5 2.259 7.448 2.078 0.909-0.055 1.725 0.657 1.778 1.585s-0.657 1.725-1.585 1.778C42.12 93.165 41.83 93.173 41.533 93.173zM30.32 44.693c-0.044 0-0.088-0.002-0.133-0.006-0.927-0.072-1.62-0.882-1.548-1.809l1.016-13.047c-1.713-1.34-3.295-2.17-4.711-2.47-0.589-0.125-1.067-0.556-1.252-1.13-0.185-0.573-0.049-1.202 0.356-1.649 2.389-2.634 5.078-4.616 7.992-5.89 0.85-0.373 1.845 0.017 2.217 0.868 0.373 0.851-0.016 1.845-0.868 2.217-1.797 0.787-3.456 1.859-5.023 3.254 1.332 0.651 2.71 1.574 4.121 2.762 0.415 0.349 0.636 0.878 0.593 1.419L31.996 43.139C31.928 44.022 31.19 44.693 30.32 44.693z" fill="#ff4136" data-fill-palette-color="accent"></path><path d="M26.628 62.54c-1.006 0-1.91-0.149-2.409-0.232-0.472-0.079-0.888-0.354-1.145-0.757-3.175-4.991-4.754-12.022-4.829-21.496-0.001-0.145 0.017-0.288 0.052-0.428 1.025-4.042 2.865-8.96 5.468-14.617 0.389-0.845 1.389-1.215 2.233-0.826 0.845 0.388 1.214 1.388 0.826 2.234-2.472 5.372-4.224 10.023-5.209 13.828 0.087 8.294 1.366 14.474 3.906 18.847 2.015 0.234 2.487-0.165 2.49-0.171 0.003-0.006 0.43-1.005-2.065-4.765-0.285-0.431-0.358-0.967-0.196-1.457 0.969-2.946-0.04-5.491-0.853-7.536-0.265-0.672-0.502-1.278-0.653-1.812-0.247-0.875 0.245-1.787 1.112-2.063 1.37-0.434 3.131-1.399 3.741-3.538 0.256-0.895 1.185-1.415 2.083-1.156 0.894 0.256 1.412 1.188 1.156 2.082-0.648 2.263-2.164 4.052-4.341 5.161 0.011 0.028 0.022 0.055 0.033 0.084 0.846 2.131 2.095 5.279 1.152 9.033 1.533 2.42 3.085 5.595 1.656 7.799C29.902 62.196 28.149 62.54 26.628 62.54z" fill="#ff4136" data-fill-palette-color="accent"></path><path d="M32.774 14.042c-0.055 0-0.11-0.003-0.166-0.009-0.926-0.089-1.603-0.913-1.513-1.838 0.276-2.832 0.874-4.661 1.998-6.118 0.569-0.738 1.625-0.871 2.363-0.304 0.735 0.568 0.872 1.626 0.304 2.363-0.71 0.918-1.102 2.23-1.313 4.385C34.362 13.391 33.63 14.042 32.774 14.042z" fill="#ff4136" data-fill-palette-color="accent"></path><path d="M31.526 99.805c-2.711 0-5.348-0.954-6.29-3.036-0.756-1.669-0.616-4.33 4.342-7.515 0.786-0.501 1.826-0.279 2.327 0.505 0.502 0.783 0.275 1.825-0.506 2.326-2.685 1.727-3.245 2.965-3.095 3.296 0.316 0.698 2.818 1.5 5.419 0.759 1.702-0.488 3.649-1.685 3.258-4.621-0.122-0.922 0.526-1.768 1.447-1.892 0.928-0.116 1.769 0.527 1.892 1.447 0.528 3.97-1.645 7.152-5.671 8.303C33.662 99.66 32.588 99.805 31.526 99.805z" fill="#ff4136" data-fill-palette-color="accent"></path><path d="M41.505 10.789c-0.026 0-0.051-0.001-0.077-0.002-2.789-0.127-5.345-0.848-7.813-2.205-0.815-0.448-1.112-1.472-0.664-2.287 0.447-0.813 1.468-1.113 2.287-0.664 2.033 1.118 4.049 1.687 6.343 1.791 0.929 0.042 1.648 0.83 1.606 1.759C43.145 10.084 42.4 10.789 41.505 10.789z" fill="#ff4136" data-fill-palette-color="accent"></path><path d="M34.426 8.791c-0.93 0-1.684-0.754-1.684-1.684V2.94c0-0.93 0.754-1.684 1.684-1.684s1.684 0.754 1.685 1.684v4.167C36.111 8.037 35.357 8.791 34.426 8.791z" fill="#ff4136" data-fill-palette-color="accent"></path><path d="M43.878 26.324c-0.67 0-1.384-0.129-2.133-0.391-0.877-0.309-1.338-1.27-1.03-2.147 0.308-0.877 1.265-1.341 2.147-1.031 1.419 0.499 1.879 0.092 2.279-0.879 0.255-0.617 0.849-1.026 1.516-1.042 1.677-0.041 2.042-0.631 2.13-1.706 0.031-0.39 0.198-0.757 0.471-1.038 0.974-1.002 1.613-2.264-0.289-4.694-0.573-0.732-0.445-1.79 0.287-2.363 0.732-0.573 1.791-0.443 2.364 0.287 3.155 4.028 1.82 7.035 0.449 8.677-0.39 2.294-1.915 3.747-4.298 4.114C46.871 25.559 45.51 26.324 43.878 26.324z" fill="#ff4136" data-fill-palette-color="accent"></path><path d="M43.054 93.173c-0.277 0-0.558-0.008-0.845-0.024-0.928-0.053-1.639-0.848-1.586-1.776 0.052-0.93 0.856-1.64 1.775-1.587 2.58 0.134 4.505-0.537 5.911-2.078 0.306-0.336 0.733-0.533 1.188-0.549 0.45 0 0.895 0.153 1.221 0.468 1.286 1.233 3.386 2.58 7.103 0.712-0.665-4.478-1.347-8.88-2.022-13.242-2.389-15.438-4.647-30.021-5.87-45.886-0.041-0.549 0.186-1.083 0.611-1.431 1.462-1.2 2.831-2.113 4.133-2.753-1.544-1.389-3.209-2.459-5.041-3.245-0.855-0.366-1.252-1.356-0.885-2.21 0.366-0.854 1.358-1.251 2.21-0.885 2.984 1.278 5.682 3.267 8.02 5.912 0.395 0.448 0.525 1.074 0.336 1.643-0.187 0.568-0.663 0.995-1.248 1.119-1.376 0.293-2.922 1.106-4.708 2.48 1.227 15.395 3.435 29.656 5.77 44.741 0.735 4.743 1.477 9.531 2.194 14.414 0.098 0.669-0.212 1.331-0.79 1.683-4.892 2.979-8.503 2.086-10.911 0.395C47.849 92.469 45.65 93.173 43.054 93.173z" fill="#ff4136" data-fill-palette-color="accent"></path><path d="M50.292 14.042c-0.856 0-1.589-0.651-1.673-1.521-0.21-2.156-0.603-3.468-1.312-4.385-0.568-0.735-0.434-1.793 0.303-2.362 0.734-0.566 1.794-0.434 2.362 0.303 1.125 1.454 1.723 3.284 1.999 6.118 0.09 0.925-0.587 1.749-1.513 1.838C50.403 14.039 50.347 14.042 50.292 14.042z" fill="#ff4136" data-fill-palette-color="accent"></path><path d="M51.226 100c-1.052 0-2.109-0.144-3.082-0.425-3.903-1.135-5.994-4.263-5.453-8.164 0.127-0.922 0.975-1.579 1.899-1.438 0.921 0.128 1.564 0.977 1.436 1.898-0.393 2.845 1.445 4.002 3.057 4.47 2.501 0.724 5.238-0.029 5.633-0.889 0.197-0.435-0.45-1.689-3.051-3.369-0.781-0.503-1.006-1.546-0.501-2.326 0.504-0.783 1.549-1.007 2.327-0.501 5.211 3.363 4.924 6.2 4.289 7.594C56.81 98.974 54.041 100 51.226 100z" fill="#ff4136" data-fill-palette-color="accent"></path><path d="M41.504 10.789c-0.895 0-1.64-0.705-1.682-1.608-0.042-0.929 0.676-1.717 1.606-1.759 2.306-0.104 4.399-0.69 6.4-1.791 0.815-0.445 1.839-0.148 2.287 0.664 0.447 0.814 0.15 1.839-0.664 2.287-2.463 1.355-5.038 2.076-7.87 2.205C41.555 10.788 41.529 10.789 41.504 10.789z" fill="#ff4136" data-fill-palette-color="accent"></path><path d="M48.64 8.791c-0.93 0-1.684-0.754-1.685-1.684V2.94c0-0.93 0.754-1.684 1.685-1.684 0.93 0 1.684 0.754 1.684 1.684v4.167C50.324 8.037 49.57 8.791 48.64 8.791z" fill="#ff4136" data-fill-palette-color="accent"></path><path d="M41.505 10.789c-0.93 0-1.684-0.754-1.685-1.685V1.684C39.82 0.754 40.574 0 41.505 0s1.684 0.754 1.684 1.684V9.104C43.189 10.035 42.435 10.789 41.505 10.789z" fill="#ff4136" data-fill-palette-color="accent"></path><path d="M73.416 28.612c-0.179 0-0.358-0.007-0.538-0.021-1.937-0.123-3.833-1.141-5.312-2.863-1.538-1.792-2.391-4.064-2.226-5.928 0.189-2.815 0.901-4.452 2.047-6.81 0.407-0.835 1.41-1.184 2.252-0.777 0.836 0.407 1.184 1.415 0.777 2.252-1.023 2.1-1.563 3.304-1.719 5.597-0.071 0.81 0.346 2.215 1.424 3.472 0.511 0.596 1.581 1.608 2.997 1.698 2.545 0.182 5.075-2.637 5.238-4.463 0.151-2.265-0.206-3.548-0.903-5.802-0.275-0.889 0.222-1.832 1.111-2.106 0.883-0.272 1.831 0.222 2.107 1.111 0.775 2.504 1.231 4.23 1.042 7.06C81.428 24.23 77.866 28.611 73.416 28.612z" fill="#ff4136" data-fill-palette-color="accent"></path><path d="M71.588 47.547c-0.043 0-0.087-0.002-0.13-0.005-0.926-0.071-1.62-0.879-1.552-1.806l2.683-35.503c0.071-0.927 0.907-1.606 1.807-1.552 0.926 0.071 1.62 0.879 1.551 1.806L73.265 45.989C73.198 46.873 72.461 47.547 71.588 47.547z" fill="#ff4136" data-fill-palette-color="accent"></path><path d="M71.071 54.167c-0.364 0-0.726-0.118-1.027-0.348-2.069-1.589-3.052-3.26-2.92-4.965 0.13-1.707 1.359-3.21 3.652-4.468 0.61-0.331 1.361-0.26 1.893 0.187 2.134 1.792 3.064 3.517 2.846 5.274-0.208 1.665-1.457 3.063-3.711 4.153C71.57 54.112 71.32 54.167 71.071 54.167zM71.383 47.983c-0.623 0.474-0.883 0.872-0.902 1.128-0.02 0.266 0.195 0.727 0.794 1.327 0.608-0.411 0.867-0.771 0.897-1.008C72.207 49.151 71.999 48.654 71.383 47.983z" fill="#ff4136" data-fill-palette-color="accent"></path><path d="M68.447 40.641c-0.598 0-1.176-0.319-1.48-0.879-2.749-5.051-6.224-9.341-10.328-12.753-0.716-0.595-0.814-1.656-0.218-2.372 0.594-0.716 1.656-0.813 2.369-0.218 4.434 3.686 8.18 8.306 11.134 13.732 0.444 0.817 0.144 1.84-0.674 2.284C68.994 40.575 68.719 40.641 68.447 40.641z" fill="#ff4136" data-fill-palette-color="accent"></path><path d="M68.786 50.686c-0.244 0-0.494-0.054-0.728-0.167-2.379-1.145-4.023-3.167-5.925-5.507-0.851-1.047-1.728-2.127-2.765-3.253l-0.32-0.092c-2.265-0.636-5.687-1.599-8.092-4.414-0.605-0.707-0.52-1.77 0.187-2.374 0.703-0.604 1.77-0.523 2.373 0.187 1.74 2.037 4.458 2.801 6.444 3.36l0.803 0.23c0.285 0.085 0.543 0.243 0.747 0.46 1.257 1.336 2.309 2.63 3.237 3.771 1.715 2.111 3.07 3.778 4.77 4.598 0.84 0.403 1.192 1.41 0.789 2.248C70.015 50.335 69.413 50.686 68.786 50.686z" fill="#ff4136" data-fill-palette-color="accent"></path><path d="M67.592 99.831c-0.043 0-0.087 0-0.13-0.004-0.928-0.071-1.622-0.881-1.551-1.807l3.138-41.041c0.073-0.928 0.908-1.579 1.807-1.552 0.928 0.071 1.622 0.881 1.552 1.807l-3.139 41.041C69.2 99.16 68.463 99.831 67.592 99.831z" fill="#ff4136" data-fill-palette-color="accent"></path><path d="M57.487 76.771c-0.437 0-0.873-0.167-1.202-0.504C41.096 60.79 32.165 45 29.738 29.339c-0.126-0.81 0.351-1.593 1.128-1.854 0.78-0.258 1.63 0.077 2.019 0.799 5.869 10.908 13.485 19.58 22.635 25.775 0.771 0.521 0.971 1.567 0.45 2.338-0.519 0.771-1.567 0.975-2.338 0.45-6.855-4.64-12.881-10.589-17.997-17.757C39.634 50.688 47.356 62.359 58.688 73.908c0.651 0.665 0.641 1.73-0.022 2.381C58.338 76.611 57.911 76.771 57.487 76.771z" fill="#ff4136" data-fill-palette-color="accent"></path></g></svg></g></svg></g><path d="M22.521 97.109c-0.381 1.076-0.736 1.967-1.063 2.672-0.328 0.705-0.788 1.623-1.379 2.751v0l4.337 1.58c0.734 0.288 1.789 0.677 3.168 1.165v0c0.717 0.254 1.203 0.653 1.456 1.196 0.26 0.545 0.303 1.064 0.129 1.555v0c-0.323 0.912-0.679 1.548-1.068 1.905-0.389 0.358-0.889 0.429-1.499 0.213v0c-0.799-0.283-1.904-0.753-3.315-1.409v0c-3.039-1.417-6.214-2.712-9.523-3.885v0c-3.083-1.093-6.025-2.025-8.825-2.798v0c-0.379-0.17-0.751-0.528-1.117-1.076-0.359-0.545-0.465-1.117-0.316-1.716v0c0.225-0.636 0.472-1.681 0.74-3.137v0c0.288-1.513 0.564-2.64 0.827-3.383v0c0.801-2.259 1.644-3.94 2.531-5.042 0.884-1.096 2.061-2.099 3.531-3.009v0c2.64-0.615 4.401-0.767 5.282-0.455v0c1.85 0.656 3.361 1.609 4.532 2.86 1.163 1.255 1.893 2.743 2.19 4.463 0.291 1.718 0.085 3.568-0.618 5.55zM8.819 93.325c-0.312 0.881-0.533 1.663-0.662 2.348-0.135 0.682-0.255 1.518-0.358 2.508v0c2.576 0.785 4.443 1.383 5.601 1.793v0c1.189 0.421 2.169 0.815 2.939 1.18v0c0.665-1.096 1.154-1.978 1.469-2.646 0.312-0.661 0.62-1.42 0.923-2.275v0c0.723-2.039 0.701-3.668-0.063-4.888-0.758-1.218-1.842-2.076-3.252-2.576v0c-0.415-0.147-0.97-0.202-1.663-0.165-0.691 0.031-1.169 0.11-1.433 0.236v0c-0.924 0.508-1.63 1.073-2.119 1.693-0.483 0.622-0.944 1.553-1.382 2.792zM48.066 49.849c0.466 0.093 1.04 0.337 1.723 0.731 0.678 0.399 1.25 0.799 1.716 1.201v0c0.865 0.745 1.933 1.991 3.203 3.738v0c1.481 3.937 0.931 7.403-1.648 10.396v0c-0.954 1.108-2.295 1.922-4.022 2.444-1.727 0.521-3.255 0.592-4.585 0.213v0c-2.425-1.041-3.893-1.781-4.404-2.222v0c-0.885-0.763-1.658-1.768-2.319-3.015-0.661-1.248-1.101-2.486-1.32-3.715v0c-0.188-0.814-0.044-1.866 0.433-3.156 0.477-1.29 1.06-2.334 1.748-3.134v0c1.338-1.553 2.766-2.617 4.285-3.194 1.524-0.582 3.254-0.677 5.19-0.287zM50.925 57.362c-0.192-0.36-0.888-1.056-2.086-2.089v0c-0.642-0.553-1.375-0.982-2.197-1.285-0.817-0.299-1.638-0.42-2.463-0.363v0c-0.085 0.006-0.262 0.069-0.532 0.188-0.271 0.11-0.605 0.294-1.003 0.551-0.397 0.257-0.788 0.608-1.172 1.052v0c-1.068 1.239-1.349 2.578-0.844 4.018 0.5 1.435 1.382 2.697 2.646 3.787v0c0.217 0.187 0.69 0.488 1.416 0.903 0.727 0.415 1.208 0.644 1.443 0.688v0c0.208 0.065 0.571 0.078 1.089 0.039 0.518-0.038 1.057-0.173 1.617-0.404 0.565-0.227 1.038-0.56 1.417-1v0c0.863-1.001 1.314-2.005 1.352-3.012 0.039-1.006-0.189-2.031-0.683-3.073zM83.902 29.678c0.276 0.014 0.81 0.025 1.602 0.033 0.792 0.008 1.419 0.185 1.88 0.53 0.462 0.346 0.921 0.927 1.378 1.743v0c0.515 0.92 0.701 1.88 0.556 2.879-0.141 1.005-0.524 1.934-1.147 2.788v0c-0.455 0.622-1.083 1.257-1.884 1.904-0.792 0.65-1.441 1.116-1.947 1.4v0c-0.513 0.287-1.215 0.577-2.107 0.87-0.889 0.299-1.523 0.47-1.904 0.515v0c-1.05-0.017-2.046-0.197-2.988-0.542-0.948-0.341-1.615-0.855-2-1.543v0c-0.287-0.513-0.346-1.007-0.177-1.484 0.169-0.477 0.521-0.866 1.057-1.166v0c0.256-0.143 0.576-0.2 0.96-0.17 0.387 0.036 0.69 0.126 0.91 0.271v0c0.651 0.507 1.402 0.741 2.251 0.701 0.85-0.04 1.619-0.252 2.306-0.637v0c0.897-0.502 1.646-1.113 2.246-1.831 0.603-0.728 0.762-1.345 0.478-1.851v0c-0.13-0.233-0.293-0.387-0.488-0.461-0.195-0.075-0.436-0.131-0.725-0.168v0c-0.499-0.057-1.152 0.033-1.96 0.271-0.811 0.232-1.333 0.379-1.566 0.441v0c-1.17 0.357-2.382 0.584-3.635 0.681v0c-1.267 0.074-2.38-0.056-3.341-0.391-0.96-0.335-1.734-1.026-2.32-2.075v0c-0.385-0.687-0.531-1.55-0.44-2.588 0.089-1.044 0.366-1.896 0.831-2.554v0c0.359-0.438 1.023-1.063 1.993-1.873 0.969-0.81 1.646-1.323 2.03-1.539v0c0.588-0.329 1.259-0.628 2.012-0.896 0.755-0.277 1.382-0.387 1.88-0.33v0c0.916 0.023 1.717 0.136 2.406 0.34 0.682 0.207 1.18 0.59 1.493 1.149v0c0.157 0.28 0.26 0.615 0.311 1.008 0.051 0.392 0.011 0.675-0.121 0.848v0c-0.283 0.396-0.681 0.737-1.194 1.025v0c-0.227 0.127-0.447 0.166-0.658 0.116-0.212-0.05-0.512-0.149-0.902-0.299v0c-0.524-0.28-0.936-0.387-1.234-0.319v0c-0.345 0.094-0.845 0.247-1.498 0.46-0.654 0.213-1.082 0.376-1.287 0.491v0c-0.588 0.329-1.101 0.835-1.538 1.516-0.437 0.681-0.534 1.24-0.289 1.676v0c0.127 0.227 0.32 0.353 0.578 0.377 0.264 0.021 0.536 0.021 0.816 0.002 0.271-0.022 0.452-0.039 0.544-0.052v0c0.676-0.05 1.391-0.167 2.145-0.352 0.748-0.181 1.213-0.293 1.396-0.334v0c1.561-0.438 2.657-0.631 3.291-0.58zM111.808 20.5c-0.187-1.099-0.17-2.236 0.05-3.411 0.213-1.18 0.573-2.288 1.082-3.322v0c0.502-1.033 1.426-1.969 2.773-2.807 1.341-0.837 2.574-1.351 3.7-1.543v0c1.152-0.196 2.353-0.237 3.604-0.124 1.251 0.112 2.164 0.462 2.738 1.048v0c1.321 1.32 2.104 2.7 2.349 4.142v0c0.132 0.777 0.077 1.47-0.165 2.079-0.236 0.602-0.604 1.271-1.102 2.006v0c-0.399 0.603-1.11 1.079-2.134 1.428-1.023 0.357-2.054 0.623-3.094 0.8v0c-0.665 0.113-1.485 0.185-2.462 0.215-0.97 0.029-1.919 0.021-2.848-0.024v0c0.156 0.563 0.397 1.101 0.721 1.614 0.323 0.507 0.667 0.879 1.032 1.115v0c0.672 0.448 1.33 0.692 1.973 0.731 0.643 0.04 1.455-0.024 2.436-0.19v0c1.04-0.177 1.978-0.515 2.814-1.016v0c0.674-0.379 1.241-0.607 1.701-0.685v0c0.553-0.094 1.002-0.001 1.348 0.279 0.34 0.288 0.554 0.688 0.641 1.201v0c0.123 0.724-0.194 1.387-0.952 1.99-0.758 0.603-1.658 1.104-2.701 1.505-1.042 0.401-1.896 0.657-2.56 0.77v0c-1.356 0.23-2.711 0.206-4.065-0.071-1.353-0.271-2.523-0.784-3.511-1.537v0c-0.829-0.692-1.54-1.573-2.136-2.644-0.601-1.069-1.012-2.252-1.232-3.549zM120.253 13.053c-0.638 0.108-1.252 0.341-1.841 0.699-0.597 0.352-1.059 0.779-1.387 1.282v0c-0.427 0.635-0.705 1.132-0.834 1.492-0.134 0.368-0.182 0.843-0.143 1.426v0c0.763 0.107 2.283-0.032 4.56-0.419v0c1.244-0.211 2.17-0.561 2.777-1.051 0.614-0.49 0.87-1.038 0.767-1.643v0c-0.103-0.606-0.567-1.089-1.394-1.45-0.834-0.366-1.669-0.478-2.505-0.336zM160.038 0.035c1.001 0.222 1.848 0.608 2.542 1.16 0.694 0.551 0.981 1.273 0.861 2.166v0c-0.09 0.668-0.472 1.156-1.146 1.463-0.675 0.314-1.45 0.412-2.323 0.294v0c-0.84-0.113-1.39-0.409-1.649-0.888-0.259-0.479-0.357-0.951-0.295-1.413v0c0.116-0.867 0.306-1.579 0.57-2.137 0.27-0.556 0.75-0.772 1.44-0.645zM161.977 11.935l-1.051 7.83-0.169 1.261c-0.152 1.131-0.258 2.202-0.319 3.21-0.061 1.009-0.101 2.031-0.119 3.066v0c-0.072 0.287-0.33 0.555-0.775 0.805-0.444 0.25-0.829 0.354-1.153 0.31v0c-0.549-0.074-1.09-0.257-1.623-0.551-0.54-0.295-0.845-0.608-0.915-0.941v0c-0.053-0.957-0.032-1.796 0.066-2.518v0c0.32-2.382 0.609-5.061 0.866-8.037v0c0.231-2.623 0.416-4.457 0.557-5.502v0c0.07-0.523 0.392-0.938 0.965-1.245 0.572-0.3 1.146-0.412 1.722-0.334v0c0.847 0.114 1.411 0.378 1.692 0.792 0.28 0.422 0.366 1.039 0.256 1.854zM211.513 19.082c-0.133 0.262-0.562 0.947-1.287 2.053v0c-1.739 2.726-3.355 5.563-4.848 8.512v0c-1.309 2.585-2.268 4.576-2.878 5.973-0.61 1.397-0.938 2.533-0.985 3.407-0.055 0.877 0.245 1.482 0.9 1.814v0c1.251 0.633 1.665 1.367 1.243 2.201v0c-0.277 0.548-0.785 0.871-1.523 0.968-0.741 0.104-1.439-0.01-2.094-0.342v0c-0.78-0.395-1.418-0.946-1.913-1.653-0.492-0.713-0.743-1.547-0.753-2.503v0c-0.958 0.533-2.074 0.779-3.349 0.74-1.275-0.039-2.394-0.303-3.359-0.791v0c-1.489-0.754-2.65-1.735-3.483-2.942-0.827-1.204-1.282-2.508-1.364-3.912-0.077-1.401 0.215-2.753 0.876-4.058v0c0.633-1.251 1.396-2.38 2.287-3.387 0.886-1.011 1.782-1.761 2.69-2.253v0c1.206-0.639 2.551-0.953 4.035-0.942 1.487 0.019 2.805 0.32 3.954 0.902v0c0.703 0.356 1.298 0.829 1.784 1.42 0.487 0.591 0.866 1.202 1.137 1.833v0c0.887-1.751 1.431-2.856 1.634-3.315v0l0.416-0.822c1.227-2.424 2.281-4.121 3.16-5.089v0c0.847-0.948 1.818-1.145 2.914-0.59v0c0.596 0.302 0.973 0.657 1.132 1.067 0.153 0.407 0.044 0.977-0.326 1.709zM190.614 30.432c-0.609 1.203-0.752 2.343-0.43 3.419 0.32 1.082 0.962 1.868 1.928 2.357v0c1.388 0.703 2.629 0.792 3.724 0.269 1.104-0.526 2-1.468 2.688-2.825v0l1.927-3.896c-0.452-1.635-1.225-2.73-2.321-3.285v0c-0.756-0.383-1.563-0.556-2.42-0.518-0.86 0.043-1.675 0.345-2.445 0.905v0c-0.884 0.637-1.768 1.829-2.651 3.574zM241.557 62.647c-0.148 0.452-0.458 0.993-0.93 1.624-0.477 0.626-0.942 1.146-1.396 1.561v0c-0.843 0.77-2.206 1.683-4.092 2.737v0c-4.085 1.003-7.461 0.046-10.127-2.871v0c-0.986-1.079-1.636-2.507-1.949-4.283-0.313-1.777-0.202-3.303 0.333-4.578v0c1.321-2.285 2.231-3.654 2.729-4.109v0c0.862-0.788 1.952-1.436 3.269-1.945 1.317-0.508 2.599-0.798 3.845-0.869v0c0.831-0.09 1.859 0.178 3.083 0.804 1.224 0.627 2.192 1.329 2.904 2.108v0c1.383 1.513 2.271 3.057 2.663 4.634 0.397 1.582 0.286 3.311-0.332 5.187zM233.758 64.594c0.38-0.148 1.154-0.756 2.322-1.823v0c0.626-0.572 1.138-1.248 1.536-2.03 0.394-0.776 0.612-1.577 0.654-2.401v0c0.004-0.085-0.038-0.269-0.124-0.552-0.077-0.282-0.22-0.636-0.428-1.061-0.208-0.425-0.51-0.854-0.906-1.288v0c-1.104-1.207-2.4-1.646-3.889-1.315-1.484 0.326-2.842 1.052-4.074 2.177v0c-0.212 0.194-0.567 0.627-1.064 1.299-0.498 0.672-0.783 1.123-0.855 1.351v0c-0.089 0.199-0.145 0.558-0.169 1.077-0.023 0.519 0.047 1.07 0.21 1.654 0.158 0.588 0.433 1.097 0.825 1.525v0c0.892 0.976 1.835 1.542 2.829 1.701 0.995 0.158 2.039 0.054 3.133-0.314zM253.592 110.308c0 0.15 0.017 0.393 0.051 0.73 0.026 0.333 0.024 0.583-0.004 0.752-0.029 0.168-0.125 0.283-0.288 0.344v0c-0.646 0.273-1.277 0.237-1.893-0.108-0.616-0.345-1.054-0.861-1.314-1.548v0c-0.404-1.068-0.432-2.01-0.084-2.827 0.348-0.817 1.056-1.585 2.126-2.303v0c0.426-0.29 1.048-0.589 1.866-0.899v0c0.468-0.177 1.231-0.434 2.289-0.769v0c1.12-0.36 2.008-0.663 2.663-0.912v0c0.955-0.361 1.693-0.948 2.215-1.759 0.523-0.805 0.604-1.685 0.243-2.64v0c-0.217-0.574-0.614-1.113-1.19-1.616-0.582-0.501-1.167-0.783-1.754-0.846v0c-0.947-0.106-1.917-0.067-2.911 0.117v0c-1.756 0.322-3.523 0.819-5.303 1.492v0c-0.849 0.321-1.499 0.585-1.949 0.791v0c-0.112 0.043-0.322 0.129-0.63 0.26-0.314 0.133-0.612 0.214-0.893 0.242-0.288 0.031-0.572 0.006-0.853-0.074v0c-0.189-0.085-0.385-0.254-0.587-0.506-0.209-0.249-0.36-0.499-0.455-0.748v0c-0.144-0.381-0.159-0.921-0.046-1.621 0.114-0.7 0.358-1.167 0.734-1.402v0l0.688-0.303c0.243-0.092 0.54-0.176 0.89-0.251v0c2.042-0.394 3.775-0.861 5.198-1.4v0c0.624-0.236 1.109-0.437 1.453-0.603v0l1.915-0.767c0.656-0.248 1.231-0.651 1.726-1.21 0.493-0.565 0.657-1.066 0.492-1.503v0c-0.052-0.137-0.175-0.312-0.37-0.524-0.186-0.208-0.309-0.393-0.371-0.556v0c-0.104-0.275-0.078-0.62 0.079-1.036 0.154-0.422 0.381-0.69 0.681-0.804v0c0.574-0.217 1.112-0.203 1.612 0.043v0c0.481 0.289 0.893 0.597 1.238 0.924 0.342 0.32 0.613 0.742 0.811 1.267v0c0.165 0.437 0.258 0.805 0.279 1.104 0.017 0.308-0.021 0.747-0.112 1.317v0c-0.045 0.295-0.239 0.697-0.583 1.205-0.339 0.499-0.892 1.019-1.658 1.559v0c1.581 0.216 2.839 0.749 3.775 1.602 0.93 0.854 1.706 2.103 2.327 3.744v0c0.239 0.631 0.289 1.386 0.151 2.267-0.132 0.878-0.374 1.68-0.728 2.406v0c-0.413 0.72-1.003 1.414-1.77 2.083-0.764 0.66-1.502 1.125-2.214 1.394v0c-0.412 0.156-1.094 0.382-2.045 0.678v0c-0.767 0.198-1.563 0.452-2.388 0.764v0c-1.911 0.723-2.947 1.54-3.109 2.45zM22.874 189.496c-0.409-1.137-0.717-2.108-0.922-2.914-0.203-0.8-0.443-1.859-0.719-3.178v0l-4.624 1.612c-0.8 0.26-1.929 0.652-3.386 1.177v0c-0.76 0.274-1.43 0.274-2.012 0.001-0.572-0.269-0.954-0.668-1.143-1.195v0c-0.346-0.961-0.478-1.722-0.397-2.284 0.078-0.553 0.437-0.945 1.077-1.176v0c0.848-0.305 2.074-0.665 3.677-1.079v0c3.444-0.879 6.919-1.949 10.423-3.212v0c3.272-1.179 6.32-2.39 9.143-3.634v0c0.417-0.122 0.961-0.08 1.631 0.125 0.67 0.206 1.143 0.603 1.42 1.192v0c0.242 0.672 0.743 1.698 1.502 3.078v0c0.78 1.436 1.312 2.55 1.597 3.341v0c0.862 2.393 1.3 4.339 1.316 5.838 0.006 1.495-0.289 3.109-0.885 4.842v0c-1.746 2.282-3.088 3.592-4.024 3.93v0c-1.96 0.706-3.842 0.937-5.647 0.693-1.803-0.238-3.402-0.964-4.797-2.179-1.395-1.215-2.472-2.874-3.23-4.978zM36.671 183.388c-0.337-0.936-0.679-1.728-1.026-2.376-0.356-0.652-0.823-1.417-1.401-2.295v0c-2.645 1.088-4.58 1.852-5.805 2.293v0c-1.256 0.452-2.324 0.787-3.204 1.005v0c0.189 1.351 0.377 2.405 0.564 3.161 0.193 0.753 0.453 1.582 0.779 2.486v0c0.781 2.167 1.894 3.494 3.339 3.981 1.443 0.481 2.909 0.453 4.397-0.083v0c0.44-0.158 0.933-0.482 1.482-0.97 0.552-0.497 0.891-0.885 1.017-1.165v0c0.421-1.038 0.619-1.976 0.594-2.811-0.018-0.838-0.263-1.913-0.736-3.226zM55.456 231.225c-0.165 0.471-0.507 1.034-1.026 1.689-0.519 0.655-1.025 1.197-1.518 1.627v0c-0.917 0.798-2.389 1.729-4.417 2.795v0c-4.363 0.956-7.92-0.148-10.673-3.311v0c-1.017-1.168-1.667-2.699-1.952-4.593-0.29-1.889-0.135-3.506 0.465-4.851v0c1.467-2.392 2.47-3.822 3.009-4.291v0c0.937-0.815 2.111-1.474 3.523-1.977 1.408-0.508 2.775-0.782 4.103-0.822v0c0.885-0.071 1.971 0.241 3.257 0.936 1.277 0.694 2.283 1.465 3.019 2.31v0c1.424 1.637 2.326 3.299 2.706 4.986 0.38 1.687 0.214 3.521-0.496 5.502zM47.136 233.089c0.408-0.151 1.244-0.777 2.508-1.877v0c0.68-0.592 1.24-1.296 1.68-2.112 0.444-0.811 0.697-1.655 0.757-2.531v0c0.007-0.094-0.029-0.293-0.107-0.597-0.074-0.299-0.218-0.678-0.432-1.137-0.215-0.45-0.526-0.91-0.934-1.378v0c-1.139-1.309-2.5-1.811-4.083-1.504-1.583 0.306-3.042 1.04-4.376 2.201v0c-0.237 0.206-0.628 0.657-1.173 1.353-0.541 0.701-0.853 1.171-0.935 1.411v0c-0.105 0.215-0.176 0.596-0.215 1.142-0.038 0.546 0.021 1.132 0.176 1.759 0.155 0.626 0.437 1.173 0.845 1.641v0c0.916 1.053 1.902 1.677 2.957 1.873 1.056 0.196 2.166 0.115 3.332-0.244zM84.605 256.57c0.138 0.26 0.428 0.749 0.869 1.467 0.432 0.721 0.619 1.387 0.563 1.997-0.056 0.61-0.326 1.35-0.809 2.22v0c-0.541 0.975-1.303 1.678-2.284 2.11-0.987 0.429-2.043 0.598-3.169 0.508v0c-0.813-0.062-1.735-0.273-2.765-0.632-1.024-0.355-1.808-0.684-2.351-0.985v0c-0.543-0.302-1.198-0.772-1.965-1.413-0.761-0.637-1.268-1.113-1.52-1.428v0c-0.568-0.957-0.962-1.959-1.182-3.006-0.22-1.047-0.126-1.937 0.282-2.673v0c0.302-0.543 0.716-0.87 1.244-0.981 0.525-0.121 1.074-0.022 1.646 0.296v0c0.274 0.152 0.503 0.413 0.687 0.783 0.184 0.37 0.269 0.692 0.254 0.966v0c-0.089 0.875 0.121 1.686 0.629 2.434 0.512 0.742 1.132 1.316 1.862 1.722v0c0.951 0.529 1.921 0.865 2.91 1.01 0.986 0.136 1.63-0.068 1.931-0.611v0c0.136-0.245 0.184-0.475 0.142-0.689-0.038-0.22-0.12-0.471-0.245-0.754v0c-0.23-0.479-0.674-1.02-1.332-1.623-0.667-0.6-1.094-0.986-1.281-1.158v0c-0.978-0.864-1.86-1.835-2.643-2.913v0c-0.771-1.1-1.272-2.177-1.505-3.23-0.232-1.053-0.038-2.137 0.581-3.251v0c0.405-0.729 1.103-1.346 2.093-1.85 0.987-0.498 1.91-0.722 2.768-0.673v0c0.594 0.086 1.526 0.34 2.796 0.763 1.279 0.42 2.122 0.744 2.53 0.971v0c0.624 0.347 1.267 0.784 1.929 1.312 0.667 0.531 1.114 1.039 1.341 1.524v0c0.495 0.84 0.841 1.628 1.036 2.363 0.198 0.729 0.132 1.391-0.199 1.986v0c-0.169 0.303-0.414 0.587-0.736 0.851-0.328 0.261-0.608 0.38-0.84 0.358v0c-0.512-0.04-1.04-0.211-1.583-0.513v0c-0.245-0.136-0.403-0.312-0.474-0.527-0.077-0.219-0.156-0.545-0.236-0.979v0c-0.041-0.626-0.177-1.057-0.405-1.29v0c-0.276-0.26-0.692-0.625-1.248-1.095-0.556-0.469-0.945-0.766-1.167-0.889v0c-0.624-0.347-1.367-0.53-2.226-0.549-0.863-0.014-1.423 0.21-1.679 0.671v0c-0.136 0.245-0.139 0.491-0.01 0.739 0.13 0.248 0.28 0.492 0.452 0.732 0.169 0.232 0.287 0.385 0.352 0.459v0c0.419 0.592 0.925 1.174 1.516 1.747 0.582 0.575 0.94 0.934 1.073 1.078v0c1.27 1.164 2.06 2.046 2.368 2.645zM111.35 266.497c0.196-1.165 0.608-2.301 1.234-3.407 0.633-1.105 1.385-2.089 2.255-2.951v0c0.87-0.862 2.121-1.477 3.753-1.845 1.64-0.373 3.056-0.46 4.248-0.259v0c1.224 0.206 2.443 0.588 3.656 1.145 1.214 0.55 2.008 1.219 2.383 2.006v0c0.864 1.784 1.167 3.44 0.91 4.967v0c-0.14 0.829-0.436 1.504-0.89 2.023-0.448 0.527-1.051 1.072-1.809 1.635v0c-0.613 0.465-1.495 0.696-2.645 0.691-1.142-0.01-2.267-0.108-3.373-0.294v0c-0.704-0.119-1.549-0.329-2.534-0.631-0.99-0.309-1.941-0.652-2.852-1.029v0c-0.044 0.622 0.007 1.243 0.152 1.864 0.151 0.628 0.369 1.122 0.655 1.481v0c0.513 0.689 1.087 1.165 1.719 1.427 0.633 0.262 1.469 0.481 2.509 0.657v0c1.106 0.186 2.164 0.175 3.174-0.034v0c0.809-0.141 1.457-0.171 1.945-0.088v0c0.586 0.099 1.001 0.348 1.244 0.748 0.249 0.408 0.328 0.885 0.236 1.431v0c-0.13 0.77-0.68 1.324-1.651 1.661-0.971 0.337-2.048 0.525-3.232 0.562-1.191 0.036-2.138-0.005-2.843-0.124v0c-1.435-0.242-2.784-0.737-4.045-1.484-1.262-0.748-2.257-1.67-2.987-2.768v0c-0.586-0.979-0.995-2.111-1.225-3.395-0.224-1.283-0.22-2.613 0.013-3.989zM122.408 261.984c-0.671-0.113-1.365-0.098-2.079 0.045-0.722 0.149-1.336 0.418-1.842 0.807v0c-0.644 0.487-1.098 0.891-1.362 1.212-0.256 0.316-0.466 0.775-0.629 1.377v0c0.723 0.372 2.295 0.763 4.718 1.171v0c1.317 0.222 2.367 0.196 3.151-0.078 0.785-0.281 1.232-0.74 1.339-1.379v0c0.109-0.645-0.191-1.295-0.9-1.949-0.709-0.654-1.508-1.056-2.396-1.206zM154.791 248.516c1.091-0.048 2.068 0.113 2.932 0.485 0.864 0.378 1.359 1.044 1.483 1.998v0c0.093 0.708-0.165 1.314-0.772 1.817-0.615 0.498-1.382 0.807-2.302 0.928v0c-0.894 0.117-1.539-0.031-1.937-0.444-0.398-0.419-0.63-0.877-0.695-1.373v0c-0.12-0.92-0.122-1.701-0.003-2.343 0.118-0.642 0.549-0.998 1.294-1.068zM160.075 260.186l1.087 8.311 0.175 1.34c0.158 1.205 0.345 2.331 0.564 3.38 0.212 1.056 0.451 2.112 0.717 3.169v0c0.008 0.315-0.183 0.663-0.57 1.044-0.388 0.381-0.751 0.593-1.088 0.637v0c-0.589 0.077-1.197 0.039-1.823-0.115-0.633-0.153-1.034-0.39-1.204-0.711v0c-0.314-0.962-0.522-1.83-0.624-2.605v0c-0.33-2.522-0.776-5.342-1.339-8.459v0c-0.482-2.758-0.796-4.693-0.941-5.805v0c-0.072-0.549 0.14-1.062 0.637-1.538 0.504-0.47 1.064-0.745 1.68-0.826v0c0.894-0.117 1.542 0 1.944 0.352 0.41 0.357 0.672 0.966 0.785 1.826zM195.111 234.478c0.137 0.275 0.447 1.075 0.93 2.401v0c1.219 3.204 2.612 6.378 4.179 9.519v0c1.374 2.754 2.464 4.833 3.269 6.237 0.802 1.398 1.561 2.396 2.277 2.993 0.716 0.598 1.421 0.724 2.113 0.378v0c1.332-0.665 2.22-0.552 2.665 0.338v0c0.292 0.585 0.248 1.223-0.132 1.912-0.383 0.698-0.921 1.22-1.613 1.566v0c-0.836 0.417-1.713 0.612-2.629 0.585-0.917-0.028-1.785-0.34-2.606-0.938v0c-0.15 1.149-0.647 2.255-1.489 3.317-0.843 1.062-1.778 1.85-2.806 2.362v0c-1.583 0.79-3.154 1.156-4.712 1.098-1.549-0.055-2.946-0.492-4.19-1.311-1.244-0.819-2.214-1.924-2.909-3.316v0c-0.665-1.332-1.144-2.697-1.438-4.094-0.3-1.394-0.374-2.634-0.221-3.718v0c0.225-1.433 0.814-2.779 1.767-4.038 0.95-1.25 2.038-2.181 3.263-2.791v0c0.753-0.376 1.532-0.585 2.338-0.63 0.815-0.041 1.578 0.022 2.288 0.19v0c-0.93-1.864-1.528-3.024-1.793-3.481v0l-0.433-0.869c-1.291-2.586-2.067-4.561-2.329-5.922v0c-0.277-1.317 0.168-2.266 1.332-2.847v0c0.639-0.319 1.183-0.419 1.631-0.299 0.445 0.129 0.861 0.581 1.248 1.358zM191.549 259.477c0.638 1.278 1.518 2.122 2.64 2.532 1.122 0.41 2.2 0.357 3.233-0.158v0c1.469-0.733 2.332-1.734 2.587-3.003 0.246-1.272 0.008-2.63-0.714-4.076v0l-2.092-4.104c-1.683-0.652-3.107-0.688-4.272-0.106v0c-0.806 0.402-1.465 0.981-1.977 1.736-0.502 0.758-0.763 1.641-0.781 2.65v0c-0.013 1.155 0.446 2.665 1.376 4.529zM235.124 217.509c0.486 0.114 1.083 0.393 1.79 0.839 0.707 0.445 1.3 0.891 1.78 1.335v0c0.891 0.826 1.975 2.19 3.252 4.092v0c1.418 4.235 0.702 7.891-2.147 10.966v0c-1.053 1.136-2.505 1.947-4.357 2.434-1.847 0.491-3.472 0.51-4.873 0.058v0c-2.535-1.202-4.065-2.046-4.589-2.532v0c-0.911-0.844-1.692-1.941-2.343-3.291-0.656-1.345-1.075-2.675-1.258-3.991v0c-0.166-0.872 0.028-1.985 0.581-3.338 0.553-1.344 1.211-2.427 1.974-3.25v0c1.475-1.591 3.03-2.666 4.667-3.225 1.637-0.558 3.478-0.591 5.523-0.097zM237.87 225.582c-0.194-0.389-0.906-1.154-2.135-2.293v0c-0.661-0.613-1.421-1.094-2.28-1.443-0.854-0.355-1.72-0.515-2.598-0.482v0c-0.094 0.004-0.288 0.061-0.582 0.171-0.289 0.105-0.65 0.289-1.084 0.551-0.425 0.262-0.848 0.62-1.27 1.076v0c-1.18 1.273-1.532 2.68-1.058 4.221 0.474 1.541 1.36 2.912 2.658 4.115v0c0.23 0.213 0.72 0.554 1.47 1.021 0.755 0.463 1.256 0.722 1.504 0.779v0c0.225 0.081 0.611 0.111 1.158 0.09 0.547-0.021 1.124-0.142 1.73-0.363 0.606-0.221 1.119-0.56 1.541-1.016v0c0.948-1.023 1.463-2.071 1.546-3.141 0.082-1.071-0.118-2.166-0.6-3.286zM266.139 180.462c0.111-0.122 0.272-0.324 0.482-0.609 0.21-0.284 0.387-0.484 0.532-0.6 0.142-0.11 0.301-0.131 0.475-0.063v0c0.703 0.236 1.179 0.709 1.427 1.42 0.242 0.709 0.222 1.427-0.059 2.156v0c-0.435 1.127-1.081 1.894-1.939 2.3-0.855 0.4-1.961 0.503-3.318 0.309v0c-0.538-0.071-1.239-0.274-2.105-0.609v0c-0.492-0.19-1.278-0.525-2.359-1.006v0c-1.134-0.509-2.05-0.898-2.748-1.168v0c-1.015-0.392-2.015-0.452-3-0.181-0.985 0.271-1.673 0.914-2.065 1.93v0c-0.233 0.604-0.298 1.309-0.193 2.115 0.104 0.806 0.367 1.44 0.79 1.904v0c0.673 0.76 1.467 1.418 2.384 1.972v0c1.615 0.988 3.363 1.845 5.244 2.57v0c0.897 0.346 1.6 0.6 2.111 0.761v0c0.112 0.043 0.339 0.124 0.68 0.241 0.335 0.115 0.626 0.259 0.873 0.433 0.251 0.183 0.459 0.406 0.622 0.669v0c0.088 0.199 0.123 0.47 0.105 0.814-0.012 0.346-0.068 0.65-0.169 0.911v0c-0.156 0.405-0.526 0.845-1.111 1.321-0.582 0.47-1.108 0.664-1.577 0.583v0l-0.756-0.238c-0.262-0.101-0.556-0.247-0.883-0.437v0c-1.89-1.13-3.588-1.985-5.096-2.567v0c-0.666-0.257-1.194-0.446-1.584-0.568v0l-2.054-0.739c-0.698-0.269-1.441-0.355-2.229-0.259-0.782 0.099-1.262 0.379-1.441 0.839v0c-0.055 0.143-0.084 0.365-0.084 0.665-0.001 0.3-0.036 0.537-0.103 0.712v0c-0.113 0.293-0.376 0.549-0.79 0.769-0.422 0.223-0.793 0.274-1.111 0.151v0c-0.61-0.235-1.023-0.631-1.238-1.186v0c-0.183-0.564-0.292-1.097-0.328-1.597-0.045-0.497 0.04-1.022 0.254-1.577v0c0.178-0.461 0.367-0.821 0.567-1.08 0.198-0.253 0.535-0.57 1.011-0.951v0c0.25-0.204 0.689-0.385 1.315-0.545 0.627-0.159 1.433-0.181 2.419-0.065v0c-1.098-1.289-1.716-2.601-1.852-3.934-0.137-1.334 0.13-2.869 0.8-4.607v0c0.257-0.666 0.751-1.299 1.483-1.897 0.734-0.604 1.496-1.068 2.287-1.393v0c0.837-0.278 1.793-0.41 2.868-0.396 1.081 0.016 1.999 0.17 2.753 0.461v0c0.43 0.166 1.128 0.471 2.094 0.915v0c0.745 0.388 1.553 0.75 2.425 1.086v0c2.024 0.781 3.421 0.869 4.191 0.265zM2.44 142.908c0-6.241 5.059-11.3 11.299-11.299 6.241 0 11.3 5.059 11.3 11.299 0 6.241-5.059 11.3-11.3 11.3-6.241 0-11.3-5.059-11.299-11.3zM253.23 142.908c0-6.241 5.059-11.3 11.3-11.299 6.241 0 11.3 5.059 11.3 11.299 0 6.241-5.059 11.3-11.3 11.3-6.241 0-11.3-5.059-11.3-11.3z" fill="#058aff" data-fill-palette-color="primary"></path></svg></g><g transform="matrix(1,0,0,1,53.1494936,295.46666128000004)"><svg viewBox="0 0 171.97061280000003 8.847392630392212" height="8.847392630392212" width="171.97061280000003"><g transform="matrix(1,0,0,1,0,0)"><svg width="171.97061280000003" viewBox="2.450000047683716 -36.5 923.7099609375 47.5" height="8.847392630392212" data-palette-color="#0074d9"><path d="M19.3 0L3.7 0 3.7-3.2 18.95-3.2Q21-3.2 22.48-4.15 23.95-5.1 24.7-6.63 25.45-8.15 25.45-9.8L25.45-9.8Q25.45-11.45 24.73-12.9 24-14.35 22.58-15.25 21.15-16.15 19.15-16.15L19.15-16.15 12.15-16.15Q9.15-16.15 6.98-17.38 4.8-18.6 3.63-20.7 2.45-22.8 2.45-25.4L2.45-25.4Q2.45-28 3.63-30.18 4.8-32.35 6.98-33.68 9.15-35 12.15-35L12.15-35 26.8-35 26.8-31.8 12.4-31.8Q10.45-31.8 9.03-30.9 7.6-30 6.83-28.58 6.05-27.15 6.05-25.6L6.05-25.6Q6.05-24.05 6.78-22.65 7.5-21.25 8.88-20.38 10.25-19.5 12.25-19.5L12.25-19.5 19.3-19.5Q22.45-19.5 24.63-18.25 26.8-17 27.93-14.88 29.05-12.75 29.05-10.2L29.05-10.2Q29.05-7.35 27.88-5.03 26.7-2.7 24.53-1.35 22.35 0 19.3 0L19.3 0ZM54.45 0L48.2 0Q44.1 0 40.87-1.53 37.65-3.05 35.77-5.9 33.9-8.75 33.9-12.75L33.9-12.75Q33.9-16.45 35.4-19.48 36.9-22.5 39.62-24.3 42.35-26.1 46-26.1L46-26.1Q49.75-26.1 52.35-24.45 54.95-22.8 56.3-20 57.65-17.2 57.65-13.7L57.65-13.7Q57.65-13.2 57.6-12.6 57.55-12 57.45-11.55L57.45-11.55 37.6-11.55Q37.75-8.75 39.2-6.85 40.65-4.95 42.97-4 45.3-3.05 48-3.05L48-3.05 54.45-3.05 54.45 0ZM37.6-14.05L37.6-14.05 54.1-14.05Q54.1-15.05 53.9-16.28 53.7-17.5 53.17-18.7 52.65-19.9 51.72-20.9 50.8-21.9 49.37-22.53 47.95-23.15 45.9-23.15L45.9-23.15Q44-23.15 42.45-22.35 40.9-21.55 39.85-20.23 38.8-18.9 38.22-17.3 37.65-15.7 37.6-14.05ZM67.3 0L63.8 0 63.8-18.25Q63.8-21.65 65.72-23.58 67.64-25.5 71.05-25.5L71.05-25.5 75.45-25.5 75.45-22.45 71.75-22.45Q69.55-22.45 68.42-21.25 67.3-20.05 67.3-17.85L67.3-17.85 67.3 0ZM90.54 0.6L90.54 0.6Q89.04 0.6 87.92-0.28 86.79-1.15 86.09-2.85L86.09-2.85 77.34-25.45 81.24-25.45 89.29-4.05Q89.59-3.4 89.89-3.1 90.19-2.8 90.59-2.8L90.59-2.8Q90.94-2.8 91.22-3.1 91.49-3.4 91.74-4.05L91.74-4.05 99.89-25.45 103.74-25.45 94.89-2.8Q94.24-1.1 93.12-0.25 91.99 0.6 90.54 0.6ZM112.34 0L108.84 0 108.84-25.5 112.34-25.5 112.34 0ZM110.59-30.1L110.59-30.1Q109.59-30.1 108.84-30.85 108.09-31.6 108.09-32.6L108.09-32.6Q108.09-33.65 108.84-34.38 109.59-35.1 110.59-35.1L110.59-35.1Q111.64-35.1 112.37-34.35 113.09-33.6 113.09-32.6L113.09-32.6Q113.09-31.6 112.37-30.85 111.64-30.1 110.59-30.1ZM135.34 0L132.44 0Q128.49 0 125.39-1.7 122.29-3.4 120.49-6.28 118.69-9.15 118.69-12.75L118.69-12.75Q118.69-16.35 120.49-19.23 122.29-22.1 125.39-23.8 128.49-25.5 132.44-25.5L132.44-25.5 135.34-25.5 135.34-22.45 132.19-22.45Q129.44-22.45 127.19-21.18 124.94-19.9 123.59-17.7 122.24-15.5 122.24-12.75L122.24-12.75Q122.24-10 123.59-7.8 124.94-5.6 127.19-4.33 129.44-3.05 132.19-3.05L132.19-3.05 135.34-3.05 135.34 0ZM160.04 0L153.79 0Q149.69 0 146.46-1.53 143.24-3.05 141.36-5.9 139.49-8.75 139.49-12.75L139.49-12.75Q139.49-16.45 140.99-19.48 142.49-22.5 145.21-24.3 147.94-26.1 151.59-26.1L151.59-26.1Q155.34-26.1 157.94-24.45 160.54-22.8 161.89-20 163.24-17.2 163.24-13.7L163.24-13.7Q163.24-13.2 163.19-12.6 163.14-12 163.04-11.55L163.04-11.55 143.19-11.55Q143.34-8.75 144.79-6.85 146.24-4.95 148.56-4 150.89-3.05 153.59-3.05L153.59-3.05 160.04-3.05 160.04 0ZM143.19-14.05L143.19-14.05 159.69-14.05Q159.69-15.05 159.49-16.28 159.29-17.5 158.76-18.7 158.24-19.9 157.31-20.9 156.39-21.9 154.96-22.53 153.54-23.15 151.49-23.15L151.49-23.15Q149.59-23.15 148.04-22.35 146.49-21.55 145.44-20.23 144.39-18.9 143.81-17.3 143.24-15.7 143.19-14.05ZM202.33 0L198.28 0Q194.28-0.05 191.01-1.43 187.73-2.8 185.36-5.2 182.98-7.6 181.68-10.78 180.38-13.95 180.38-17.55L180.38-17.55Q180.38-21.15 181.68-24.3 182.98-27.45 185.36-29.83 187.73-32.2 191.01-33.6 194.28-35 198.28-35L198.28-35 202.33-35 202.33-31.8 198.43-31.8Q195.38-31.75 192.76-30.68 190.13-29.6 188.18-27.68 186.23-25.75 185.16-23.15 184.08-20.55 184.08-17.55L184.08-17.55Q184.08-14.45 185.16-11.88 186.23-9.3 188.18-7.35 190.13-5.4 192.76-4.33 195.38-3.25 198.43-3.25L198.43-3.25 202.33-3.25 202.33 0ZM227.08 0L220.83 0Q216.73 0 213.5-1.53 210.28-3.05 208.4-5.9 206.53-8.75 206.53-12.75L206.53-12.75Q206.53-16.45 208.03-19.48 209.53-22.5 212.25-24.3 214.98-26.1 218.63-26.1L218.63-26.1Q222.38-26.1 224.98-24.45 227.58-22.8 228.93-20 230.28-17.2 230.28-13.7L230.28-13.7Q230.28-13.2 230.23-12.6 230.18-12 230.08-11.55L230.08-11.55 210.23-11.55Q210.38-8.75 211.83-6.85 213.28-4.95 215.6-4 217.93-3.05 220.63-3.05L220.63-3.05 227.08-3.05 227.08 0ZM210.23-14.05L210.23-14.05 226.73-14.05Q226.73-15.05 226.53-16.28 226.33-17.5 225.8-18.7 225.28-19.9 224.35-20.9 223.43-21.9 222-22.53 220.58-23.15 218.53-23.15L218.53-23.15Q216.63-23.15 215.08-22.35 213.53-21.55 212.48-20.23 211.43-18.9 210.85-17.3 210.28-15.7 210.23-14.05ZM240.03 0L236.53 0 236.53-14.85Q236.53-18.35 238.1-20.88 239.68-23.4 242.33-24.78 244.98-26.15 248.18-26.15L248.18-26.15Q251.43-26.15 254.05-24.78 256.68-23.4 258.25-20.88 259.83-18.35 259.83-14.85L259.83-14.85 259.83 0 256.33 0 256.33-14.7Q256.33-17.35 255.18-19.23 254.03-21.1 252.15-22.1 250.28-23.1 248.13-23.1L248.13-23.1Q246.03-23.1 244.18-22.13 242.33-21.15 241.18-19.28 240.03-17.4 240.03-14.7L240.03-14.7 240.03 0ZM281.77 0L276.17 0Q272.77 0 270.85-1.95 268.92-3.9 268.92-7.25L268.92-7.25 268.92-31.9 272.42-31.9 272.42-7.65Q272.42-5.45 273.55-4.25 274.67-3.05 276.87-3.05L276.87-3.05 281.77-3.05 281.77 0ZM281.87-22.45L264.47-22.45 264.47-25.5 281.87-25.5 281.87-22.45ZM290.97 0L287.47 0 287.47-18.25Q287.47-21.65 289.4-23.58 291.32-25.5 294.72-25.5L294.72-25.5 299.12-25.5 299.12-22.45 295.42-22.45Q293.22-22.45 292.1-21.25 290.97-20.05 290.97-17.85L290.97-17.85 290.97 0ZM322.82 0L316.57 0Q312.47 0 309.24-1.53 306.02-3.05 304.14-5.9 302.27-8.75 302.27-12.75L302.27-12.75Q302.27-16.45 303.77-19.48 305.27-22.5 307.99-24.3 310.72-26.1 314.37-26.1L314.37-26.1Q318.12-26.1 320.72-24.45 323.32-22.8 324.67-20 326.02-17.2 326.02-13.7L326.02-13.7Q326.02-13.2 325.97-12.6 325.92-12 325.82-11.55L325.82-11.55 305.97-11.55Q306.12-8.75 307.57-6.85 309.02-4.95 311.34-4 313.67-3.05 316.37-3.05L316.37-3.05 322.82-3.05 322.82 0ZM305.97-14.05L305.97-14.05 322.47-14.05Q322.47-15.05 322.27-16.28 322.07-17.5 321.54-18.7 321.02-19.9 320.09-20.9 319.17-21.9 317.74-22.53 316.32-23.15 314.27-23.15L314.27-23.15Q312.37-23.15 310.82-22.35 309.27-21.55 308.22-20.23 307.17-18.9 306.59-17.3 306.02-15.7 305.97-14.05ZM368.96 0.6L368.96 0.6Q366.41 0.6 364.36-0.58 362.31-1.75 361.14-3.88 359.96-6 359.96-8.75L359.96-8.75 359.96-26.8Q359.96-28.4 359.21-29.68 358.46-30.95 357.24-31.68 356.01-32.4 354.51-32.4L354.51-32.4Q353.01-32.4 351.76-31.68 350.51-30.95 349.76-29.68 349.01-28.4 349.01-26.8L349.01-26.8 349.01 0 345.41 0 345.41-26.25Q345.41-29 346.56-31.1 347.71-33.2 349.76-34.43 351.81-35.65 354.51-35.65L354.51-35.65Q357.16-35.65 359.21-34.43 361.26-33.2 362.44-31.1 363.61-29 363.61-26.25L363.61-26.25 363.61-8.2Q363.61-6.6 364.36-5.33 365.11-4.05 366.31-3.33 367.51-2.6 368.96-2.6L368.96-2.6Q370.41-2.6 371.61-3.33 372.81-4.05 373.54-5.33 374.26-6.6 374.26-8.2L374.26-8.2 374.26-26.25Q374.26-29 375.41-31.1 376.56-33.2 378.64-34.43 380.71-35.65 383.36-35.65L383.36-35.65Q386.06-35.65 388.09-34.43 390.11-33.2 391.26-31.1 392.41-29 392.41-26.25L392.41-26.25 392.41 0 388.81 0 388.81-26.8Q388.81-28.4 388.09-29.68 387.36-30.95 386.14-31.68 384.91-32.4 383.36-32.4L383.36-32.4Q381.86-32.4 380.59-31.68 379.31-30.95 378.59-29.68 377.86-28.4 377.86-26.8L377.86-26.8 377.86-8.75Q377.86-6 376.71-3.88 375.56-1.75 373.56-0.58 371.56 0.6 368.96 0.6ZM410.91 0.65L410.91 0.65Q407.06 0.65 404.31-1.15 401.56-2.95 400.11-5.98 398.66-9 398.66-12.75L398.66-12.75Q398.66-16.55 400.26-19.58 401.86-22.6 404.84-24.35 407.81-26.1 411.91-26.1L411.91-26.1Q415.86-26.1 418.74-24.35 421.61-22.6 423.19-19.65 424.76-16.7 424.76-13L424.76-13 424.76 0 421.31 0 421.31-5.7 421.16-5.7Q420.46-4.2 419.06-2.73 417.66-1.25 415.64-0.3 413.61 0.65 410.91 0.65ZM411.66-2.35L411.66-2.35Q414.46-2.35 416.61-3.73 418.76-5.1 420.01-7.48 421.26-9.85 421.21-12.85L421.21-12.85Q421.21-15.8 420.06-18.1 418.91-20.4 416.81-21.75 414.71-23.1 411.81-23.1L411.81-23.1Q408.81-23.1 406.66-21.73 404.51-20.35 403.36-17.98 402.21-15.6 402.21-12.6L402.21-12.6Q402.21-9.8 403.31-7.45 404.41-5.1 406.54-3.73 408.66-2.35 411.66-2.35ZM435.96 0L432.46 0 432.46-14.85Q432.46-18.35 434.03-20.88 435.61-23.4 438.26-24.78 440.91-26.15 444.11-26.15L444.11-26.15Q447.36-26.15 449.98-24.78 452.61-23.4 454.18-20.88 455.76-18.35 455.76-14.85L455.76-14.85 455.76 0 452.26 0 452.26-14.7Q452.26-17.35 451.11-19.23 449.96-21.1 448.08-22.1 446.21-23.1 444.06-23.1L444.06-23.1Q441.96-23.1 440.11-22.13 438.26-21.15 437.11-19.28 435.96-17.4 435.96-14.7L435.96-14.7 435.96 0ZM474.36 0.65L474.36 0.65Q470.51 0.65 467.76-1.15 465.01-2.95 463.56-5.98 462.11-9 462.11-12.75L462.11-12.75Q462.11-16.55 463.71-19.58 465.31-22.6 468.28-24.35 471.26-26.1 475.36-26.1L475.36-26.1Q479.31-26.1 482.18-24.35 485.06-22.6 486.63-19.65 488.21-16.7 488.21-13L488.21-13 488.21 0 484.76 0 484.76-5.7 484.61-5.7Q483.91-4.2 482.51-2.73 481.11-1.25 479.08-0.3 477.06 0.65 474.36 0.65ZM475.11-2.35L475.11-2.35Q477.91-2.35 480.06-3.73 482.21-5.1 483.46-7.48 484.71-9.85 484.66-12.85L484.66-12.85Q484.66-15.8 483.51-18.1 482.36-20.4 480.26-21.75 478.16-23.1 475.26-23.1L475.26-23.1Q472.26-23.1 470.11-21.73 467.96-20.35 466.81-17.98 465.66-15.6 465.66-12.6L465.66-12.6Q465.66-9.8 466.76-7.45 467.86-5.1 469.98-3.73 472.11-2.35 475.11-2.35ZM512.65 10.15L499.8 10.15 499.8 7.1 511.95 7.1Q514.4 7.1 515.7 5.7 517 4.3 517 1.9L517 1.9 517-5.4 516.9-5.4Q516-3.95 514.6-2.6 513.2-1.25 511.28-0.4 509.35 0.45 506.85 0.45L506.85 0.45Q503.15 0.45 500.38-1.28 497.6-3 496.08-6 494.55-9 494.55-12.85L494.55-12.85Q494.55-16.6 496.1-19.58 497.65-22.55 500.55-24.3 503.45-26.05 507.5-26.05L507.5-26.05Q511.35-26.05 514.28-24.35 517.2-22.65 518.85-19.68 520.5-16.7 520.5-12.8L520.5-12.8 520.5 2.3Q520.5 5.9 518.4 8.03 516.3 10.15 512.65 10.15L512.65 10.15ZM507.4-2.6L507.4-2.6Q510.2-2.6 512.35-3.95 514.5-5.3 515.73-7.58 516.95-9.85 516.95-12.8L516.95-12.8Q516.95-15.75 515.78-18.05 514.6-20.35 512.45-21.7 510.3-23.05 507.45-23.05L507.45-23.05Q504.55-23.05 502.43-21.68 500.3-20.3 499.2-17.98 498.1-15.65 498.1-12.65L498.1-12.65Q498.1-9.85 499.2-7.58 500.3-5.3 502.4-3.95 504.5-2.6 507.4-2.6ZM547.3 0L541.05 0Q536.95 0 533.73-1.53 530.5-3.05 528.63-5.9 526.75-8.75 526.75-12.75L526.75-12.75Q526.75-16.45 528.25-19.48 529.75-22.5 532.48-24.3 535.2-26.1 538.85-26.1L538.85-26.1Q542.6-26.1 545.2-24.45 547.8-22.8 549.15-20 550.5-17.2 550.5-13.7L550.5-13.7Q550.5-13.2 550.45-12.6 550.4-12 550.3-11.55L550.3-11.55 530.45-11.55Q530.6-8.75 532.05-6.85 533.5-4.95 535.83-4 538.15-3.05 540.85-3.05L540.85-3.05 547.3-3.05 547.3 0ZM530.45-14.05L530.45-14.05 546.95-14.05Q546.95-15.05 546.75-16.28 546.55-17.5 546.02-18.7 545.5-19.9 544.58-20.9 543.65-21.9 542.23-22.53 540.8-23.15 538.75-23.15L538.75-23.15Q536.85-23.15 535.3-22.35 533.75-21.55 532.7-20.23 531.65-18.9 531.08-17.3 530.5-15.7 530.45-14.05ZM560.2 0L556.75 0 556.75-15.4Q556.75-18.35 558.07-20.78 559.4-23.2 561.85-24.65 564.3-26.1 567.7-26.1L567.7-26.1Q569.45-26.1 571.27-25.58 573.1-25.05 574.67-23.78 576.25-22.5 577.15-20.25L577.15-20.25 577.2-20.25Q578.1-22.5 579.7-23.78 581.3-25.05 583.15-25.58 585-26.1 586.7-26.1L586.7-26.1Q590.15-26.1 592.6-24.65 595.05-23.2 596.35-20.78 597.65-18.35 597.65-15.4L597.65-15.4 597.65 0 594.2 0 594.2-15.4Q594.2-17.65 593.2-19.35 592.2-21.05 590.52-22.08 588.85-23.1 586.7-23.1L586.7-23.1Q584.5-23.1 582.75-22.08 581-21.05 579.97-19.3 578.95-17.55 578.95-15.4L578.95-15.4 578.95 0 575.45 0 575.45-15.4Q575.45-17.55 574.4-19.3 573.35-21.05 571.62-22.08 569.9-23.1 567.7-23.1L567.7-23.1Q565.6-23.1 563.87-22.08 562.15-21.05 561.17-19.35 560.2-17.65 560.2-15.4L560.2-15.4 560.2 0ZM624.54 0L618.29 0Q614.19 0 610.97-1.53 607.74-3.05 605.87-5.9 603.99-8.75 603.99-12.75L603.99-12.75Q603.99-16.45 605.49-19.48 606.99-22.5 609.72-24.3 612.44-26.1 616.09-26.1L616.09-26.1Q619.84-26.1 622.44-24.45 625.04-22.8 626.39-20 627.74-17.2 627.74-13.7L627.74-13.7Q627.74-13.2 627.69-12.6 627.64-12 627.54-11.55L627.54-11.55 607.69-11.55Q607.84-8.75 609.29-6.85 610.74-4.95 613.07-4 615.39-3.05 618.09-3.05L618.09-3.05 624.54-3.05 624.54 0ZM607.69-14.05L607.69-14.05 624.19-14.05Q624.19-15.05 623.99-16.28 623.79-17.5 623.27-18.7 622.74-19.9 621.82-20.9 620.89-21.9 619.47-22.53 618.04-23.15 615.99-23.15L615.99-23.15Q614.09-23.15 612.54-22.35 610.99-21.55 609.94-20.23 608.89-18.9 608.32-17.3 607.74-15.7 607.69-14.05ZM637.49 0L633.99 0 633.99-14.85Q633.99-18.35 635.57-20.88 637.14-23.4 639.79-24.78 642.44-26.15 645.64-26.15L645.64-26.15Q648.89-26.15 651.52-24.78 654.14-23.4 655.72-20.88 657.29-18.35 657.29-14.85L657.29-14.85 657.29 0 653.79 0 653.79-14.7Q653.79-17.35 652.64-19.23 651.49-21.1 649.62-22.1 647.74-23.1 645.59-23.1L645.59-23.1Q643.49-23.1 641.64-22.13 639.79-21.15 638.64-19.28 637.49-17.4 637.49-14.7L637.49-14.7 637.49 0ZM679.24 0L673.64 0Q670.24 0 668.31-1.95 666.39-3.9 666.39-7.25L666.39-7.25 666.39-31.9 669.89-31.9 669.89-7.65Q669.89-5.45 671.01-4.25 672.14-3.05 674.34-3.05L674.34-3.05 679.24-3.05 679.24 0ZM679.34-22.45L661.94-22.45 661.94-25.5 679.34-25.5 679.34-22.45ZM713.73 0L698.13 0 698.13-3.2 713.38-3.2Q715.43-3.2 716.91-4.15 718.38-5.1 719.13-6.63 719.88-8.15 719.88-9.8L719.88-9.8Q719.88-11.45 719.16-12.9 718.43-14.35 717.01-15.25 715.58-16.15 713.58-16.15L713.58-16.15 706.58-16.15Q703.58-16.15 701.41-17.38 699.23-18.6 698.06-20.7 696.88-22.8 696.88-25.4L696.88-25.4Q696.88-28 698.06-30.18 699.23-32.35 701.41-33.68 703.58-35 706.58-35L706.58-35 721.23-35 721.23-31.8 706.83-31.8Q704.88-31.8 703.46-30.9 702.03-30 701.26-28.58 700.48-27.15 700.48-25.6L700.48-25.6Q700.48-24.05 701.21-22.65 701.93-21.25 703.31-20.38 704.68-19.5 706.68-19.5L706.68-19.5 713.73-19.5Q716.88-19.5 719.06-18.25 721.23-17 722.36-14.88 723.48-12.75 723.48-10.2L723.48-10.2Q723.48-7.35 722.31-5.03 721.13-2.7 718.96-1.35 716.78 0 713.73 0L713.73 0ZM733.18 0L729.68 0 729.68-25.5 733.18-25.5 733.18 0ZM731.43-30.1L731.43-30.1Q730.43-30.1 729.68-30.85 728.93-31.6 728.93-32.6L728.93-32.6Q728.93-33.65 729.68-34.38 730.43-35.1 731.43-35.1L731.43-35.1Q732.48-35.1 733.21-34.35 733.93-33.6 733.93-32.6L733.93-32.6Q733.93-31.6 733.21-30.85 732.48-30.1 731.43-30.1ZM744.33 0L740.88 0 740.88-15.4Q740.88-18.35 742.2-20.78 743.53-23.2 745.98-24.65 748.43-26.1 751.83-26.1L751.83-26.1Q753.58-26.1 755.4-25.58 757.23-25.05 758.8-23.78 760.38-22.5 761.28-20.25L761.28-20.25 761.33-20.25Q762.23-22.5 763.83-23.78 765.43-25.05 767.28-25.58 769.13-26.1 770.83-26.1L770.83-26.1Q774.28-26.1 776.73-24.65 779.18-23.2 780.48-20.78 781.78-18.35 781.78-15.4L781.78-15.4 781.78 0 778.33 0 778.33-15.4Q778.33-17.65 777.33-19.35 776.33-21.05 774.65-22.08 772.98-23.1 770.83-23.1L770.83-23.1Q768.63-23.1 766.88-22.08 765.13-21.05 764.1-19.3 763.08-17.55 763.08-15.4L763.08-15.4 763.08 0 759.58 0 759.58-15.4Q759.58-17.55 758.53-19.3 757.48-21.05 755.75-22.08 754.03-23.1 751.83-23.1L751.83-23.1Q749.73-23.1 748-22.08 746.28-21.05 745.3-19.35 744.33-17.65 744.33-15.4L744.33-15.4 744.33 0ZM802.28-26.15L802.28-26.15Q798.78-26.15 795.83-24.6 792.88-23.05 791.13-20.05 789.38-17.05 789.38-12.8L789.38-12.8 789.38 11 792.88 11 792.88-5.25 792.98-5.25Q793.83-3.55 795.33-2.23 796.83-0.9 798.73-0.15 800.63 0.6 802.73 0.6L802.73 0.6Q806.18 0.6 809-1 811.83-2.6 813.53-5.53 815.23-8.45 815.23-12.55L815.23-12.55Q815.23-15.75 814.23-18.28 813.23-20.8 811.45-22.55 809.68-24.3 807.33-25.23 804.98-26.15 802.28-26.15ZM802.23-23.1L802.23-23.1Q804.78-23.1 806.93-21.88 809.08-20.65 810.38-18.32 811.68-16 811.68-12.75L811.68-12.75Q811.68-9.6 810.38-7.28 809.08-4.95 806.95-3.7 804.83-2.45 802.33-2.45L802.33-2.45Q799.83-2.45 797.68-3.68 795.53-4.9 794.23-7.2 792.93-9.5 792.93-12.8L792.93-12.8Q792.93-16.1 794.2-18.4 795.48-20.7 797.6-21.9 799.73-23.1 802.23-23.1ZM825.07 0L821.57 0 821.57-36.5 825.07-36.5 825.07 0ZM836.27 0L832.77 0 832.77-25.5 836.27-25.5 836.27 0ZM834.52-30.1L834.52-30.1Q833.52-30.1 832.77-30.85 832.02-31.6 832.02-32.6L832.02-32.6Q832.02-33.65 832.77-34.38 833.52-35.1 834.52-35.1L834.52-35.1Q835.57-35.1 836.3-34.35 837.02-33.6 837.02-32.6L837.02-32.6Q837.02-31.6 836.3-30.85 835.57-30.1 834.52-30.1ZM848.87 0L845.42 0 845.42-22.45 840.92-22.45 840.92-25.5 845.42-25.5 845.42-29.25Q845.42-32.65 847.34-34.58 849.27-36.5 852.67-36.5L852.67-36.5 858.47-36.5 858.47-33.45 853.32-33.45Q851.17-33.45 850.02-32.25 848.87-31.05 848.87-28.85L848.87-28.85 848.87-25.5 857.52-25.5 857.52-22.45 848.87-22.45 848.87 0ZM865.32 0L861.82 0 861.82-25.5 865.32-25.5 865.32 0ZM863.57-30.1L863.57-30.1Q862.57-30.1 861.82-30.85 861.07-31.6 861.07-32.6L861.07-32.6Q861.07-33.65 861.82-34.38 862.57-35.1 863.57-35.1L863.57-35.1Q864.62-35.1 865.34-34.35 866.07-33.6 866.07-32.6L866.07-32.6Q866.07-31.6 865.34-30.85 864.62-30.1 863.57-30.1ZM892.21 0L885.96 0Q881.86 0 878.64-1.53 875.41-3.05 873.54-5.9 871.66-8.75 871.66-12.75L871.66-12.75Q871.66-16.45 873.16-19.48 874.66-22.5 877.39-24.3 880.11-26.1 883.76-26.1L883.76-26.1Q887.51-26.1 890.11-24.45 892.71-22.8 894.06-20 895.41-17.2 895.41-13.7L895.41-13.7Q895.41-13.2 895.36-12.6 895.31-12 895.21-11.55L895.21-11.55 875.36-11.55Q875.51-8.75 876.96-6.85 878.41-4.95 880.74-4 883.06-3.05 885.76-3.05L885.76-3.05 892.21-3.05 892.21 0ZM875.36-14.05L875.36-14.05 891.86-14.05Q891.86-15.05 891.66-16.28 891.46-17.5 890.94-18.7 890.41-19.9 889.49-20.9 888.56-21.9 887.14-22.53 885.71-23.15 883.66-23.15L883.66-23.15Q881.76-23.15 880.21-22.35 878.66-21.55 877.61-20.23 876.56-18.9 875.99-17.3 875.41-15.7 875.36-14.05ZM913.26 0.65L913.26 0.65Q916.76 0.65 919.71-0.9 922.66-2.45 924.41-5.45 926.16-8.45 926.16-12.7L926.16-12.7 926.16-36.5 922.66-36.5 922.66-20.25 922.56-20.25Q921.71-21.95 920.21-23.28 918.71-24.6 916.81-25.35 914.91-26.1 912.81-26.1L912.81-26.1Q909.36-26.1 906.54-24.5 903.71-22.9 902.01-19.98 900.31-17.05 900.31-12.95L900.31-12.95Q900.31-9.75 901.31-7.23 902.31-4.7 904.09-2.95 905.86-1.2 908.21-0.28 910.56 0.65 913.26 0.65ZM913.31-2.4L913.31-2.4Q910.76-2.4 908.61-3.63 906.46-4.85 905.16-7.18 903.86-9.5 903.86-12.75L903.86-12.75Q903.86-15.9 905.16-18.23 906.46-20.55 908.59-21.8 910.71-23.05 913.21-23.05L913.21-23.05Q915.71-23.05 917.86-21.83 920.01-20.6 921.31-18.3 922.61-16 922.61-12.7L922.61-12.7Q922.61-9.4 921.34-7.1 920.06-4.8 917.94-3.6 915.81-2.4 913.31-2.4Z" opacity="1" transform="matrix(1,0,0,1,0,0)" fill="#0074d9" class="undefined-text-1" data-fill-palette-color="secondary" id="text-1"></path></svg></g></svg></g></svg></g></svg></g></svg></g></svg><rect width="256.03644326904094" height="280" fill="none" stroke="none" visibility="hidden"></rect></g><defs></defs></svg>