<svg viewBox="0 0 640 400" data-background-color="#0a1627" preserveAspectRatio="xMidYMid meet" height="400" width="640"
     xmlns="http://www.w3.org/2000/svg" xmlns:xlink="http://www.w3.org/1999/xlink">
    <rect width="640" height="400" x="0" y="0" opacity="1" fill="#0a1627" data-fill-palette-color="background"
          id="background"></rect>
    <g id="tight-bounds" transform="matrix(1,0,0,1,190.22246577315033,76.4)">
        <svg viewBox="0 0 259.55506845369933 247.2" height="247.2" width="259.55506845369933">
            <g>
                <svg viewBox="0 0 395.52 376.69287131428575" height="247.2" width="259.55506845369933">
                    <g transform="matrix(1,0,0,1,67.61508571428573,0)">
                        <svg viewBox="0 0 260.28982857142853 260.2898285714286" height="260.2898285714286"
                             width="260.28982857142853">
                            <g>
                                <svg></svg>
                            </g>
                            <g id="icon-0">
                                <svg viewBox="0 0 260.28982857142853 260.2898285714286" height="260.2898285714286"
                                     width="260.28982857142853">
                                    <g>
                                        <path d="M78.087 260.29c-43.126 0-78.087-34.961-78.087-78.087v-104.116c0-43.126 34.961-78.087 78.087-78.087h104.116c43.126 0 78.087 34.961 78.087 78.087v104.116c0 43.126-34.961 78.087-78.087 78.087z"
                                              fill="#c1c1c1" data-fill-palette-color="accent"></path>
                                    </g>
                                    <g transform="matrix(1,0,0,1,54.37119268571428,112.45795503572768)">
                                        <svg viewBox="0 0 151.54744319999998 35.37391849997323"
                                             height="35.37391849997323" width="151.54744319999998">
                                            <g>
                                                <svg xmlns="http://www.w3.org/2000/svg" xmlns:xlink="http://www.w3.org/1999/xlink" version="1.1" x="0" y="0" viewBox="52.69769287109375 375.3213195800781 467.70233154296875 109.17019653320312" enable-background="new 0 0 612 792" xml:space="preserve" height="35.37391849997323" width="151.54744319999998" class="icon-x-0" data-fill-palette-color="quaternary" id="x-0"><g fill="#0a1627" data-fill-palette-color="quaternary"><path d="M489.6 375.8c-14.9 11.2-27.3 20.7-39.8 30-3.8 2.9-6.1 2.2-9.1-2-5.9-8.3-34.3-11-41.5-4.6-3.8 3.3-3.7 7.5-2.5 11.8 1.4 4.8 3.9 9.3 9.4 9.4 16.7 0.3 33.3 0.2 50 0.2 6.7 0 8.1-10.5 17.1-7.4 15.5 5.4 31.4 9.5 47.2 16-17.7 6.5-36.4 20-52.5 14.7-19.2-6.3-37.2-2.9-55.6-5.2-2.3-0.3-4.8 0-7.1 0.5-7 1.4-8.7 6.9-9 12.8-0.4 5.9 3.3 8.6 8.7 9.4 13.3 1.8 27.3 7.3 37.3-7.7 2.4-3.7 6-2.4 8.8-0.3 12 9.1 23.8 18.4 39 30.2-25.4 2.8-46.4-1.8-67.3-2.8-13.2-0.6-26.6-2.1-39.4-6.4-9.7-3.3-14.9-7-8.6-18.5 8.2-15 6.3-17.2-11.6-17.2-96.7 0-193.5 0.1-290.2-0.3-7.4 0-20.1 4.8-20.2-8.5-0.2-13.7 12.7-8.6 20-8.6 96.3-0.4 192.5-0.2 288.8-0.3 21.1 0 21.6-0.3 12.6-19.1-5.2-10.7-0.6-14.9 8.6-17.7 18.4-5.6 37.5-6.4 56.4-8.2C454.4 374.6 470.1 375.8 489.6 375.8z" fill="#0a1627" data-fill-palette-color="quaternary"></path></g></svg>
                                            </g>
                                        </svg>
                                    </g>
                                </svg>
                            </g>
                        </svg>
                    </g>
                    <g></g>
                </svg>
            </g>
        </svg>
        <rect width="259.55506845369933" height="247.2" fill="none" stroke="none" visibility="hidden"></rect>
    </g>
    <defs></defs>
</svg>